<svg width="50" height="50" viewBox="0 0 50 50" fill="none" xmlns="http://www.w3.org/2000/svg">
<path d="M25 0C11.215 0 0 11.215 0 25C0 38.785 11.215 50 25 50C38.785 50 50 38.785 50 25C50 11.215 38.785 0 25 0ZM25 48.3333C12.1342 48.3333 1.66667 37.8658 1.66667 25C1.66667 12.1342 12.1342 1.66667 25 1.66667C37.8658 1.66667 48.3333 12.1342 48.3333 25C48.3333 37.8658 37.8658 48.3333 25 48.3333Z" fill="white"/>
<path d="M25.8333 21.6839V13.2323C25.8333 12.7714 25.46 12.3989 25 12.3989C24.54 12.3989 24.1667 12.7714 24.1667 13.2323V21.6839C23.0008 21.9873 22.0883 22.8998 21.785 24.0656H15.8333C15.3733 24.0656 15 24.4381 15 24.8989C15 25.3598 15.3733 25.7323 15.8333 25.7323H21.785C22.1575 27.1656 23.4517 28.2323 25 28.2323C26.8383 28.2323 28.3333 26.7373 28.3333 24.8989C28.3333 23.3498 27.2667 22.0564 25.8333 21.6839ZM25 26.5656C24.0808 26.5656 23.3333 25.8181 23.3333 24.8989C23.3333 23.9798 24.0808 23.2323 25 23.2323C25.9192 23.2323 26.6667 23.9798 26.6667 24.8989C26.6667 25.8181 25.9192 26.5656 25 26.5656Z" fill="white"/>
<path d="M25.0013 8.23242C25.4613 8.23242 25.8346 7.85992 25.8346 7.39909V6.56576C25.8346 6.10492 25.4613 5.73242 25.0013 5.73242C24.5413 5.73242 24.168 6.10492 24.168 6.56576V7.39909C24.168 7.85992 24.5413 8.23242 25.0013 8.23242Z" fill="white"/>
<path d="M25.0013 41.5659C24.5413 41.5659 24.168 41.9384 24.168 42.3993V43.2326C24.168 43.6934 24.5413 44.0659 25.0013 44.0659C25.4613 44.0659 25.8346 43.6934 25.8346 43.2326V42.3993C25.8346 41.9384 25.4613 41.5659 25.0013 41.5659Z" fill="white"/>
<path d="M43.3346 24.0659H42.5013C42.0413 24.0659 41.668 24.4384 41.668 24.8993C41.668 25.3601 42.0413 25.7326 42.5013 25.7326H43.3346C43.7946 25.7326 44.168 25.3601 44.168 24.8993C44.168 24.4384 43.7946 24.0659 43.3346 24.0659Z" fill="white"/>
<path d="M7.4987 24.0659H6.66536C6.20536 24.0659 5.83203 24.4384 5.83203 24.8993C5.83203 25.3601 6.20536 25.7326 6.66536 25.7326H7.4987C7.9587 25.7326 8.33203 25.3601 8.33203 24.8993C8.33203 24.4384 7.9587 24.0659 7.4987 24.0659Z" fill="white"/>
<path d="M37.3746 11.3456L36.7854 11.9348C36.4596 12.2606 36.4596 12.7873 36.7854 13.1131C36.9479 13.2756 37.1612 13.3573 37.3746 13.3573C37.5879 13.3573 37.8012 13.2756 37.9637 13.1131L38.5529 12.524C38.8787 12.1981 38.8787 11.6715 38.5529 11.3456C38.2271 11.0198 37.7004 11.0206 37.3746 11.3456Z" fill="white"/>
<path d="M12.0367 36.684L11.4475 37.2732C11.1217 37.599 11.1217 38.1257 11.4475 38.4515C11.61 38.614 11.8233 38.6957 12.0367 38.6957C12.25 38.6957 12.4633 38.614 12.6258 38.4515L13.215 37.8623C13.5408 37.5365 13.5408 37.0098 13.215 36.684C12.8892 36.3582 12.3617 36.359 12.0367 36.684Z" fill="white"/>
<path d="M37.9637 36.6843C37.6379 36.3585 37.1112 36.3585 36.7854 36.6843C36.4596 37.0101 36.4596 37.5368 36.7854 37.8627L37.3746 38.4518C37.5371 38.6143 37.7504 38.696 37.9637 38.696C38.1771 38.696 38.3904 38.6143 38.5529 38.4518C38.8787 38.126 38.8787 37.5993 38.5529 37.2735L37.9637 36.6843Z" fill="white"/>
<path d="M12.6258 11.3459C12.3 11.0201 11.7733 11.0201 11.4475 11.3459C11.1217 11.6718 11.1217 12.1984 11.4475 12.5243L12.0367 13.1134C12.1992 13.2759 12.4125 13.3576 12.6258 13.3576C12.8392 13.3576 13.0525 13.2759 13.215 13.1134C13.5408 12.7876 13.5408 12.2609 13.215 11.9351L12.6258 11.3459Z" fill="white"/>
</svg>
