<svg width="62" height="62" viewBox="0 0 62 62" fill="none" xmlns="http://www.w3.org/2000/svg">
<g clip-path="url(#clip0)">
<path fill-rule="evenodd" clip-rule="evenodd" d="M60.468 38.8528C60.809 38.8528 61.0818 39.1256 61.0818 39.479C61.0818 39.8448 60.8152 40.1114 60.468 40.1114C60.1208 40.1114 59.8542 39.8448 59.8542 39.479C59.8542 39.1256 60.127 38.8528 60.468 38.8528V38.7288C60.0526 38.7288 59.6992 39.0512 59.6992 39.4852C59.6992 39.9254 60.0526 40.2416 60.468 40.2416C60.8772 40.2416 61.2306 39.9192 61.2306 39.4852C61.2306 39.0512 60.8772 38.7288 60.468 38.7288V38.8528Z" fill="white"/>
<path fill-rule="evenodd" clip-rule="evenodd" d="M60.3138 39.1565H60.4936C60.5866 39.1565 60.6858 39.1751 60.6858 39.2867C60.6858 39.4231 60.5866 39.4293 60.475 39.4293H60.32V39.5409H60.475L60.7044 39.9191H60.8532L60.6052 39.5347C60.7354 39.5161 60.8284 39.4479 60.8284 39.2929C60.8284 39.1193 60.7292 39.0449 60.5184 39.0449H60.1836V39.9191H60.3138V39.1565Z" fill="white"/>
<path fill-rule="evenodd" clip-rule="evenodd" d="M42.5446 13.7241C38.2046 13.7241 34.2242 15.2679 31.1304 17.8347C28.0304 15.2555 24.0314 13.7241 19.679 13.7241C9.79004 13.7241 1.77344 21.7407 1.77344 31.6297C1.77964 41.5187 9.79004 49.5353 19.679 49.5353C24.0314 49.5353 28.0242 48.0039 31.1304 45.4247C34.2304 47.9915 38.2046 49.5353 42.5446 49.5353C52.4336 49.5353 60.4502 41.5187 60.4502 31.6297C60.4502 21.7407 52.4336 13.7241 42.5446 13.7241ZM42.5446 48.2147C38.5704 48.2147 34.9496 46.8259 32.0976 44.4885C34.2738 42.3867 35.9416 39.7517 36.8344 36.7757H35.458C34.5962 39.4231 33.0772 41.7605 31.1056 43.6329C29.1464 41.7605 27.6398 39.4169 26.778 36.7819H25.4016C26.2882 39.7455 27.925 42.3805 30.0888 44.4761C27.2368 46.7825 23.6408 48.2085 19.6852 48.2085C10.5216 48.2085 3.09404 40.7809 3.09404 31.6235C3.09404 22.4599 10.5216 15.0323 19.6852 15.0323C23.6408 15.0323 27.2368 16.4583 30.0888 18.7647C27.925 20.8603 26.2882 23.5015 25.4016 26.4589H26.778C27.6398 23.8239 29.1402 21.4803 31.1056 19.6079C33.0772 21.4803 34.5962 23.8177 35.458 26.4651H36.8344C35.9416 23.4891 34.28 20.8541 32.0976 18.7461C34.9558 16.4149 38.5704 15.0199 42.5446 15.0199C51.7082 15.0199 59.1358 22.4475 59.1358 31.6111C59.1358 40.7871 51.7082 48.2147 42.5446 48.2147Z" fill="white"/>
<path fill-rule="evenodd" clip-rule="evenodd" d="M46.9395 35.5172L48.0865 29.3792H49.5373L49.6861 29.9868C49.9465 29.683 50.4424 29.3792 51.2856 29.3792L50.833 30.9788C50.4239 30.9788 49.6427 30.8734 49.1467 32.7086L48.6259 35.5172H46.9395Z" fill="white"/>
<path fill-rule="evenodd" clip-rule="evenodd" d="M24.7443 27.8164H26.4121L26.0711 29.4408H26.9701L26.6725 30.7676H25.8169L25.3457 33.2476C25.2589 33.7188 25.3023 34.1466 26.2633 33.9978L26.1579 35.2378C25.7921 35.4734 25.3023 35.5354 24.9179 35.5354C24.5335 35.5354 23.2687 35.2998 23.5911 33.632L24.7443 27.8164Z" fill="white"/>
<path fill-rule="evenodd" clip-rule="evenodd" d="M31.979 32.783C32.1712 31.7972 32.6238 29.3606 29.6912 29.3606C26.9942 29.3606 26.6532 32.0328 26.5912 32.4234C26.5292 32.8078 26.4858 35.5234 29.375 35.5234C30.0818 35.5482 31.111 35.4614 31.514 35.2444L31.7682 33.9796C31.514 34.0416 30.5468 34.1284 29.8834 34.1284C29.22 34.1284 28.1536 34.1718 28.3458 32.783H31.979ZM28.5132 31.4128C28.5008 31.45 28.4884 31.4996 28.476 31.5678C28.4884 31.5182 28.5008 31.4624 28.5132 31.4128ZM29.778 30.5572C30.4414 30.5572 30.6336 31.0718 30.5282 31.6732H28.4512C28.6434 30.8982 29.1084 30.5572 29.778 30.5572Z" fill="white"/>
<path fill-rule="evenodd" clip-rule="evenodd" d="M23.1637 30.8113L23.5481 29.5713C22.7545 29.2737 22.1345 29.3357 21.8989 29.3357C21.6633 29.3357 19.6607 29.3109 19.3507 30.7927C19.1151 31.9273 19.5305 32.3985 19.9273 32.5659C20.5721 32.8449 20.9317 33.0991 21.2727 33.2727C21.6943 33.4835 21.6199 34.1903 21.0557 34.1903C20.8015 34.1903 19.6855 34.3205 18.8547 34.0415L18.6191 35.3063C19.3879 35.5233 20.0079 35.5233 20.5907 35.5233C20.9999 35.5233 22.9901 35.6287 23.2629 33.7873C23.3993 32.8883 23.0087 32.4791 22.6863 32.2869C22.3639 32.0699 21.8307 31.7723 21.4897 31.6235C21.1487 31.4747 20.8883 30.8981 21.5083 30.7245C21.8989 30.6873 22.6925 30.6873 23.1637 30.8113C23.1637 30.8113 22.6925 30.6873 23.1637 30.8113Z" fill="white"/>
<path fill-rule="evenodd" clip-rule="evenodd" d="M12.3374 35.5171L13.7262 28.1143H10.9858L8.95219 32.6093L8.63599 28.1143H5.95759L4.52539 35.5171H6.19319L7.22239 30.1727L7.66879 35.5171H9.25599L11.5872 30.2967L10.6014 35.5171H12.3374Z" fill="white"/>
<path d="M16.3615 29.3359C15.8469 29.3545 15.2703 29.3359 14.1791 29.5529L13.9249 30.8797C14.3341 30.8363 15.4253 30.6689 16.0019 30.6875C16.5785 30.7061 17.2233 30.6255 17.0311 31.5431C16.6033 31.5865 13.6087 31.1153 13.1375 33.6821C12.9453 34.9469 14.0365 35.5855 14.8921 35.5421C15.7477 35.4987 15.9833 35.3933 16.2809 35.1763L16.4979 35.5173H18.0603L18.7237 32.1817C18.8849 31.3509 19.1639 29.3359 16.3615 29.3359ZM16.6157 33.4465C16.5103 34.0045 15.7167 34.3579 15.1835 34.1533C14.6255 33.9363 14.7743 33.2977 15.3137 32.9319C15.8469 32.5661 16.4669 32.7397 16.7459 32.7831L16.6157 33.4465Z" fill="white"/>
<path fill-rule="evenodd" clip-rule="evenodd" d="M41.2246 29.8253C40.7968 29.5711 40.4992 29.5277 39.9412 29.5277C39.3832 29.5277 38.1432 30.0609 37.9076 31.5613C37.6286 33.3345 38.85 34.2149 40.5612 33.6383L41.051 35.1325C40.493 35.3867 39.9412 35.5169 39.0174 35.5169C37.2814 35.5169 35.4028 33.9793 36.2584 30.8545C36.8908 28.5543 38.8686 27.7111 40.0218 27.7545C41.392 27.8041 41.8818 28.2691 42.3096 28.7403L41.2246 29.8253Z" fill="white"/>
<path fill-rule="evenodd" clip-rule="evenodd" d="M55.8982 27.7302L55.4518 30.0862C55.1294 29.8506 54.9372 29.3608 54.1436 29.3608C53.226 29.3608 51.7876 29.1872 50.9754 31.971C50.4298 33.831 51.5334 35.5236 52.73 35.5236C53.288 35.505 53.8398 35.2694 54.187 35.0338L54.404 35.5236H56.202L57.659 27.7364H55.8982V27.7302ZM54.8504 32.591C54.5528 33.3412 54.1684 33.831 53.5484 33.831C52.9718 33.831 52.4572 33.1676 52.6928 32.2934C53.0524 30.9542 54.2304 30.4086 54.745 31.0968C54.931 31.3386 55.024 32.033 54.8504 32.591Z" fill="white"/>
<path d="M44.6037 29.3359C44.0891 29.3545 43.5125 29.3359 42.4213 29.5529L42.1671 30.8797C42.5763 30.8363 43.6675 30.6689 44.2441 30.6875C44.8207 30.7061 45.4655 30.6255 45.2733 31.5431C44.8455 31.5865 41.8509 31.1153 41.3797 33.6821C41.1875 34.9469 42.2787 35.5855 43.1343 35.5421C43.9899 35.4987 44.2255 35.3933 44.5231 35.1763L44.7401 35.5173H46.3025L46.9659 32.1817C47.1271 31.3509 47.4061 29.3359 44.6037 29.3359ZM44.8641 33.4465C44.7587 34.0045 43.9651 34.3579 43.4319 34.1533C42.8739 33.9363 43.0227 33.2977 43.5621 32.9319C44.0953 32.5661 44.7153 32.7397 44.9943 32.7831L44.8641 33.4465Z" fill="white"/>
<path fill-rule="evenodd" clip-rule="evenodd" d="M32.0293 35.5172L33.1639 29.4412H34.5961L34.7449 30.0426C34.9991 29.745 35.4951 29.4412 36.3259 29.4412L35.8981 31.047C35.4889 31.047 34.7015 30.9168 34.2055 32.7396L33.6909 35.5234H32.0293V35.5172Z" fill="white"/>
</g>
<defs>
<clipPath id="clip0">
<path d="M0 0H62V62H0V0Z" fill="white"/>
</clipPath>
</defs>
</svg>
