<svg width="62" height="62" viewBox="0 0 62 62" fill="none" xmlns="http://www.w3.org/2000/svg">
<path d="M17.0814 22.407V22.4132C17.0752 22.4132 14.7192 22.407 14.0868 24.6576C13.5102 26.7222 11.8858 32.42 11.8424 32.575H11.396C11.396 32.575 9.73439 26.7532 9.15159 24.6514C8.52539 22.4008 6.15699 22.407 6.15699 22.407H0.775391V39.5314H6.15699V29.3634H6.60339L9.74679 39.5314H13.4854L16.6288 29.3696H17.0752V39.5314H22.4568V22.407H17.0814ZM36.7416 22.407C36.7416 22.407 35.1606 22.5496 34.4228 24.205L30.6098 32.5812H30.1634V22.4132H24.7818V39.5376H29.8658C29.8658 39.5376 31.5212 39.3888 32.259 37.7396L35.9976 29.3634H36.444V39.5314H41.8256V22.407H36.7416ZM44.2188 30.188V39.5376H49.6004V34.0816H55.4346C57.9766 34.0816 60.128 32.4572 60.9278 30.1942L44.2188 30.188Z" fill="white"/>
<path d="M55.4413 22.407H43.4629C44.0643 25.6682 46.5071 28.2846 49.6691 29.134C50.4007 29.3324 51.1571 29.4316 51.9197 29.4316H61.1453C61.2259 29.041 61.2631 28.6442 61.2631 28.235C61.2693 25.0172 58.6591 22.407 55.4413 22.407Z" fill="white"/>
</svg>
