<svg width="62" height="62" viewBox="0 0 62 62" fill="none" xmlns="http://www.w3.org/2000/svg">
<g clip-path="url(#clip0)">
<g clip-path="url(#clip1)">
<path d="M37.8712 21.7726C34.4091 22.5135 32.28 24.4944 32.1046 27.135C31.9564 29.4662 32.9806 30.7861 36.2945 32.4973C38.2215 33.4943 38.8136 34.0194 38.8136 34.774C38.8136 36.647 35.4594 37.2131 32.0233 35.9191C31.3494 35.6631 30.7567 35.5012 30.7164 35.5552C30.6221 35.6631 30.0158 39.3545 30.0834 39.4221C30.2315 39.5567 32.0773 40.0285 33.0067 40.1636C34.4351 40.3794 37.6548 40.2715 38.7466 39.9745C41.5763 39.2064 43.4084 37.3743 43.812 34.9085C44.2033 32.4837 43.0711 30.894 39.743 29.1828C37.7491 28.1456 37.0615 27.5795 37.0615 26.9459C37.0615 26.3798 37.7751 25.6792 38.5569 25.4771C39.5272 25.208 41.7902 25.3692 42.9217 25.7871C43.4332 25.9762 43.8778 26.1107 43.9187 26.0841C43.9863 26.0165 44.6193 22.3386 44.5653 22.2983C44.5517 22.2717 44.0805 22.1371 43.5281 21.9747C42.2224 21.5971 39.1782 21.4892 37.8712 21.7726Z" fill="white"/>
<path d="M0.955078 22.0013C0.955078 22.1092 1.57446 22.3783 2.54476 22.6883C3.40718 22.971 4.5393 23.4155 5.0508 23.6989L5.98018 24.1974L8.13592 32.1055L10.2917 40.0278H12.8653H15.4525L19.198 31.1091C21.2595 26.1919 22.9837 22.1092 23.011 22.015C23.0643 21.8804 22.5261 21.8395 20.5316 21.8395H17.9989L15.641 27.9831C14.3613 31.3515 13.2565 34.1403 13.2026 34.167C13.1623 34.2073 13.0135 33.6685 12.8789 32.9815C12.7444 32.3076 12.5689 31.5537 12.4747 31.3106C12.3668 31.0818 12.3265 30.8661 12.3532 30.8258C12.4747 30.7043 10.8174 23.0522 10.6017 22.7286C10.0895 21.9468 9.90106 21.9071 5.23928 21.8662C1.74992 21.8259 0.955078 21.8531 0.955078 22.0013Z" fill="white"/>
<path d="M23.684 30.6244C22.8755 35.4616 22.1886 39.5567 22.1477 39.7186L22.0801 40.0286H24.4919H26.9167L28.3588 31.2977C29.1673 26.5014 29.8406 22.4193 29.8809 22.2036L29.9621 21.8396H27.5503H25.1385L23.684 30.6244Z" fill="white"/>
<path d="M52.4612 21.9747C51.9088 22.0962 51.4103 22.4328 51.1549 22.8234C50.9528 23.1334 43.6641 39.9342 43.6641 40.0824C43.6641 40.1357 44.7956 40.15 46.1701 40.1357L48.6892 40.0954L49.174 38.7481L49.6588 37.4009H52.8246H55.9909L56.3009 38.7884L56.6245 40.1624H58.8472H61.0706L61.003 39.8524C60.8548 39.2596 57.136 22.0007 57.136 21.9201C57.136 21.7992 52.9734 21.8531 52.4612 21.9747ZM54.4421 30.0452C54.8061 31.7694 55.1161 33.2928 55.1161 33.4403C55.1161 33.6827 54.9952 33.6964 53.0949 33.6964H51.0737L51.3973 32.8476C53.1085 28.2937 53.674 26.8249 53.7143 26.8658C53.7415 26.8919 54.0646 28.3197 54.4421 30.0452Z" fill="white"/>
</g>
</g>
<defs>
<clipPath id="clip0">
<path d="M0 0H62V62H0V0Z" fill="white"/>
</clipPath>
<clipPath id="clip1">
<rect x="0.00195312" width="62" height="62" fill="white"/>
</clipPath>
</defs>
</svg>
