<svg width="18" height="12" viewBox="0 0 18 12" fill="none" xmlns="http://www.w3.org/2000/svg">
<path fill-rule="evenodd" clip-rule="evenodd" d="M15.4916 7.38417C16.0886 7.96712 16.7188 8.51559 17.2544 9.15732C17.4909 9.4425 17.7149 9.73678 17.8862 10.0677C18.129 10.5382 17.9091 11.0559 17.4873 11.084L14.865 11.0828C14.1886 11.1389 13.6491 10.8667 13.1954 10.4042C12.8324 10.0344 12.4962 9.64086 12.1471 9.25857C12.0039 9.10232 11.8541 8.9553 11.6752 8.83909C11.3172 8.60673 11.0065 8.67787 10.8019 9.05122C10.5935 9.43097 10.5463 9.85145 10.5258 10.2747C10.4977 10.8921 10.3111 11.0545 9.69083 11.0828C8.36525 11.1453 7.10722 10.9447 5.93854 10.276C4.9082 9.68651 4.10921 8.85429 3.41377 7.91212C2.05975 6.07752 1.02284 4.0616 0.0909061 1.9892C-0.118865 1.52229 0.0345452 1.27165 0.549718 1.26278C1.40519 1.24616 2.26053 1.24734 3.11701 1.2616C3.46469 1.26668 3.69487 1.4661 3.82912 1.79457C4.29195 2.93261 4.85828 4.01535 5.56915 5.01897C5.75846 5.28616 5.95149 5.55336 6.22638 5.74143C6.53048 5.94966 6.76201 5.88064 6.90507 5.54189C6.99586 5.32709 7.0356 5.09573 7.05606 4.86568C7.12384 4.0742 7.13277 3.28408 7.01389 2.49539C6.94091 2.00316 6.66366 1.68451 6.1725 1.59136C5.92186 1.54387 5.95918 1.45061 6.08054 1.30755C6.29131 1.06081 6.48955 0.907227 6.88473 0.907227H9.84832C10.3149 0.999308 10.4185 1.2089 10.4824 1.67836L10.4849 4.97029C10.4798 5.15203 10.5757 5.69134 10.903 5.81163C11.165 5.89726 11.3377 5.68767 11.4949 5.52154C12.2045 4.76845 12.7109 3.87844 13.1633 2.95686C13.3641 2.55163 13.5367 2.13078 13.704 1.7103C13.828 1.39827 14.0225 1.24474 14.374 1.25154L17.2263 1.25409C17.3108 1.25409 17.3964 1.25533 17.4783 1.26934C17.959 1.35125 18.0907 1.55801 17.9422 2.02735C17.7083 2.76371 17.2532 3.37735 16.8083 3.99383C16.3326 4.652 15.8239 5.28764 15.3522 5.94972C14.9188 6.55431 14.9532 6.85907 15.4916 7.38417Z" fill="#F1891F"/>
</svg>
