<svg width="42" height="50" viewBox="0 0 42 50" fill="none" xmlns="http://www.w3.org/2000/svg">
<path d="M21.0013 22.5002C21.4615 22.5002 21.8346 22.1271 21.8346 21.6668C21.8346 21.2066 21.4615 20.8335 21.0013 20.8335C20.5411 20.8335 20.168 21.2066 20.168 21.6668C20.168 22.1271 20.5411 22.5002 21.0013 22.5002Z" fill="#B20F2C"/>
<path d="M23.5013 20.8332C23.9615 20.8332 24.3346 20.4601 24.3346 19.9998C24.3346 19.5396 23.9615 19.1665 23.5013 19.1665C23.0411 19.1665 22.668 19.5396 22.668 19.9998C22.668 20.4601 23.0411 20.8332 23.5013 20.8332Z" fill="#B20F2C"/>
<path d="M18.5013 20.8332C18.9615 20.8332 19.3346 20.4601 19.3346 19.9998C19.3346 19.5396 18.9615 19.1665 18.5013 19.1665C18.0411 19.1665 17.668 19.5396 17.668 19.9998C17.668 20.4601 18.0411 20.8332 18.5013 20.8332Z" fill="#B20F2C"/>
<path d="M16.0013 19.1667C16.4615 19.1667 16.8346 18.7936 16.8346 18.3333C16.8346 17.8731 16.4615 17.5 16.0013 17.5C15.5411 17.5 15.168 17.8731 15.168 18.3333C15.168 18.7936 15.5411 19.1667 16.0013 19.1667Z" fill="#B20F2C"/>
<path d="M26.0013 19.1667C26.4615 19.1667 26.8346 18.7936 26.8346 18.3333C26.8346 17.8731 26.4615 17.5 26.0013 17.5C25.5411 17.5 25.168 17.8731 25.168 18.3333C25.168 18.7936 25.5411 19.1667 26.0013 19.1667Z" fill="#B20F2C"/>
<path d="M28.5013 17.5002C28.9615 17.5002 29.3346 17.1271 29.3346 16.6668C29.3346 16.2066 28.9615 15.8335 28.5013 15.8335C28.0411 15.8335 27.668 16.2066 27.668 16.6668C27.668 17.1271 28.0411 17.5002 28.5013 17.5002Z" fill="#B20F2C"/>
<path d="M13.5013 17.5002C13.9615 17.5002 14.3346 17.1271 14.3346 16.6668C14.3346 16.2066 13.9615 15.8335 13.5013 15.8335C13.0411 15.8335 12.668 16.2066 12.668 16.6668C12.668 17.1271 13.0411 17.5002 13.5013 17.5002Z" fill="#B20F2C"/>
<path d="M21.0013 19.1667C21.4615 19.1667 21.8346 18.7936 21.8346 18.3333C21.8346 17.8731 21.4615 17.5 21.0013 17.5C20.5411 17.5 20.168 17.8731 20.168 18.3333C20.168 18.7936 20.5411 19.1667 21.0013 19.1667Z" fill="#B20F2C"/>
<path d="M21.0013 29.1667C21.4615 29.1667 21.8346 28.7936 21.8346 28.3333C21.8346 27.8731 21.4615 27.5 21.0013 27.5C20.5411 27.5 20.168 27.8731 20.168 28.3333C20.168 28.7936 20.5411 29.1667 21.0013 29.1667Z" fill="#B20F2C"/>
<path d="M21.0013 31.6667C21.4615 31.6667 21.8346 31.2936 21.8346 30.8333C21.8346 30.3731 21.4615 30 21.0013 30C20.5411 30 20.168 30.3731 20.168 30.8333C20.168 31.2936 20.5411 31.6667 21.0013 31.6667Z" fill="#B20F2C"/>
<path d="M21.0013 34.1667C21.4615 34.1667 21.8346 33.7936 21.8346 33.3333C21.8346 32.8731 21.4615 32.5 21.0013 32.5C20.5411 32.5 20.168 32.8731 20.168 33.3333C20.168 33.7936 20.5411 34.1667 21.0013 34.1667Z" fill="#B20F2C"/>
<path d="M21.0013 36.6667C21.4615 36.6667 21.8346 36.2936 21.8346 35.8333C21.8346 35.3731 21.4615 35 21.0013 35C20.5411 35 20.168 35.3731 20.168 35.8333C20.168 36.2936 20.5411 36.6667 21.0013 36.6667Z" fill="#B20F2C"/>
<path d="M21.0013 39.1667C21.4615 39.1667 21.8346 38.7936 21.8346 38.3333C21.8346 37.8731 21.4615 37.5 21.0013 37.5C20.5411 37.5 20.168 37.8731 20.168 38.3333C20.168 38.7936 20.5411 39.1667 21.0013 39.1667Z" fill="#B20F2C"/>
<path d="M21.0013 41.6667C21.4615 41.6667 21.8346 41.2936 21.8346 40.8333C21.8346 40.3731 21.4615 40 21.0013 40C20.5411 40 20.168 40.3731 20.168 40.8333C20.168 41.2936 20.5411 41.6667 21.0013 41.6667Z" fill="#B20F2C"/>
<path d="M41.0013 48.3333H38.5013V45H34.3346V36.4817C34.3346 34.2317 33.2163 32.1417 31.3438 30.8933L22.5038 25L31.3438 19.1067C33.2163 17.8583 34.3346 15.7683 34.3346 13.5183V5H38.5013V1.66667H41.0013C41.4613 1.66667 41.8346 1.29417 41.8346 0.833333C41.8346 0.3725 41.4613 0 41.0013 0H38.5013H37.668H4.33464H3.5013H1.0013C0.541302 0 0.167969 0.3725 0.167969 0.833333C0.167969 1.29417 0.541302 1.66667 1.0013 1.66667H3.5013V5H7.66797V13.5183C7.66797 15.7683 8.7863 17.8583 10.6588 19.1067L19.4988 25L10.6588 30.8933C8.7863 32.1417 7.66797 34.2317 7.66797 36.4817V45H3.5013V48.3333H1.0013C0.541302 48.3333 0.167969 48.7058 0.167969 49.1667C0.167969 49.6275 0.541302 50 1.0013 50H3.5013H4.33464H37.668H38.5013H41.0013C41.4613 50 41.8346 49.6275 41.8346 49.1667C41.8346 48.7058 41.4613 48.3333 41.0013 48.3333ZM5.16797 3.33333V1.66667H36.8346V3.33333H34.3346H7.66797H5.16797ZM11.583 17.72C10.1755 16.7808 9.33464 15.21 9.33464 13.5183V5H32.668V13.5183C32.668 15.21 31.8271 16.7808 30.4196 17.72L21.0013 23.9983L11.583 17.72ZM9.33464 36.4817C9.33464 34.79 10.1755 33.2192 11.583 32.28L21.0013 26.0017L30.4196 32.28C31.8271 33.2192 32.668 34.79 32.668 36.4817V45H9.33464V36.4817ZM5.16797 46.6667H7.66797H34.3346H36.8346V48.3333H5.16797V46.6667Z" fill="#B20F2C"/>
</svg>
