<?xml version="1.0" encoding="UTF-8" standalone="no"?>
<svg
   xmlns:dc="http://purl.org/dc/elements/1.1/"
   xmlns:cc="http://creativecommons.org/ns#"
   xmlns:rdf="http://www.w3.org/1999/02/22-rdf-syntax-ns#"
   xmlns:svg="http://www.w3.org/2000/svg"
   xmlns="http://www.w3.org/2000/svg"
   xmlns:sodipodi="http://sodipodi.sourceforge.net/DTD/sodipodi-0.dtd"
   xmlns:inkscape="http://www.inkscape.org/namespaces/inkscape"
   inkscape:version="1.0 (6e3e5246a0, 2020-05-07)"
   sodipodi:docname="instagram.svg"
   id="svg4"
   version="1.1"
   fill="none"
   viewBox="0 0 18 18"
   height="18"
   width="18">
  <metadata
     id="metadata10">
    <rdf:RDF>
      <cc:Work
         rdf:about="">
        <dc:format>image/svg+xml</dc:format>
        <dc:type
           rdf:resource="http://purl.org/dc/dcmitype/StillImage" />
        <dc:title></dc:title>
      </cc:Work>
    </rdf:RDF>
  </metadata>
  <defs
     id="defs8" />
  <sodipodi:namedview
     inkscape:current-layer="svg4"
     inkscape:window-maximized="1"
     inkscape:window-y="27"
     inkscape:window-x="0"
     inkscape:cy="4.698231"
     inkscape:cx="26.75495"
     inkscape:zoom="15.5"
     showgrid="false"
     id="namedview6"
     inkscape:window-height="713"
     inkscape:window-width="1366"
     inkscape:pageshadow="2"
     inkscape:pageopacity="0"
     guidetolerance="10"
     gridtolerance="10"
     objecttolerance="10"
     borderopacity="1"
     bordercolor="#666666"
     pagecolor="#ffffff" />
  <path
     inkscape:export-ydpi="37.333332"
     inkscape:export-xdpi="37.333332"
     id="path12"
     d="M 1.8675546,17.80616 C 1.1614566,17.554624 0.74756065,17.220984 0.41060265,16.631721 l -0.2882,-0.503997 -0.0021,-7.0696576 c -0.002,-6.8063445 0.0074,-7.0884098 0.254751,-7.5731698 0.287723,-0.56398335 0.87926195,-1.05476085 1.53657395,-1.27483745 0.55995,-0.1874783 13.4179414,-0.2069847 14.0652534,-0.021338 0.723688,0.207551 1.288707,0.676765 1.627373,1.35143345 l 0.320378,0.6382381 -0.0028,6.8456327 c -0.0026,6.3424596 -0.02011,6.8836516 -0.237809,7.3628696 -0.295522,0.650515 -1.024771,1.298864 -1.659056,1.475006 -0.311936,0.08662 -2.85642,0.133571 -7.0680434,0.130407 -5.313085,-0.004 -6.678625,-0.03985 -7.089313,-0.186148 z m 8.5422294,-4.174978 c 1.394322,-0.433963 2.395403,-1.333856 3.036154,-2.729265 0.206929,-0.450643 0.268695,-0.855094 0.275873,-1.8064516 0.0081,-1.0713008 -0.03434,-1.3188038 -0.336564,-1.9636218 C 12.927618,6.1554623 11.997447,5.1819581 11.10197,4.7421963 10.44938,4.4217147 10.239652,4.3857877 9.0213836,4.3857877 c -1.19865,0 -1.439575,0.039719 -2.089871,0.3445397 -0.937649,0.4395145 -1.835752,1.3376181 -2.275267,2.2752671 -0.30482,0.6502961 -0.344539,0.8912201 -0.344539,2.0898709 0,1.2319236 0.03298,1.4192236 0.363542,2.0645166 1.107951,2.162851 3.463622,3.177987 5.7345354,2.4712 z m 5.151671,-9.590467 c 0.366685,-0.3444831 0.403519,-1.1109165 0.07283,-1.5155247 -0.124193,-0.151956 -0.440854,-0.31071 -0.703691,-0.3527868 -0.416107,-0.066613 -0.530756,-0.023631 -0.886879,0.332491 -0.356122,0.3561223 -0.399104,0.4707717 -0.332491,0.8868792 0.04208,0.2628368 0.20083,0.5794979 0.352787,0.7036915 0.389029,0.3179539 1.129536,0.2908791 1.497442,-0.05475 z"
     style="fill:#ffffff;stroke-width:0.129032" />
  <path
     inkscape:export-ydpi="37.333332"
     inkscape:export-xdpi="37.333332"
     id="path14"
     d="m 8.0054646,12.572054 c -1.007132,-0.335618 -1.864068,-1.057909 -2.267916,-1.911573 -1.044078,-2.2070016 0.270491,-4.7357271 2.694033,-5.1822821 1.508823,-0.2780117 3.1507344,0.5968483 3.8677484,2.0608547 0.244878,0.499994 0.268114,0.630464 0.268114,1.5054528 0,0.849825 -0.02778,1.0172896 -0.245972,1.4828856 -0.346378,0.739123 -1.069171,1.471418 -1.793556,1.817135 -0.488485,0.233132 -0.7311404,0.288906 -1.3753144,0.316112 -0.494391,0.02088 -0.916459,-0.01171 -1.147137,-0.08859 z"
     style="fill:#ffffff;stroke-width:0.0912396" />
</svg>
