<svg width="16" height="16" viewBox="0 0 16 16" fill="none" xmlns="http://www.w3.org/2000/svg">
<path d="M10.6247 4.625L13.2497 2M14.7497 0.5L13.2497 2L14.7497 0.5ZM7.54222 7.7075C7.92947 8.0896 8.23732 8.54453 8.44803 9.04609C8.65875 9.54766 8.76817 10.0859 8.76999 10.63C8.77181 11.174 8.666 11.713 8.45865 12.216C8.2513 12.7189 7.94651 13.1759 7.56183 13.5606C7.17714 13.9453 6.72016 14.2501 6.21719 14.4574C5.71423 14.6648 5.17522 14.7706 4.63119 14.7688C4.08717 14.7669 3.54887 14.6575 3.04731 14.4468C2.54575 14.2361 2.09082 13.9283 1.70872 13.541C0.957315 12.763 0.541539 11.721 0.550937 10.6395C0.560336 9.55791 0.994157 8.52331 1.75897 7.7585C2.52377 6.99369 3.55838 6.55987 4.63994 6.55047C5.7215 6.54107 6.76348 6.95685 7.54147 7.70825L7.54222 7.7075ZM7.54222 7.7075L10.6247 4.625L7.54222 7.7075ZM10.6247 4.625L12.8747 6.875L15.4997 4.25L13.2497 2L10.6247 4.625Z" stroke="#B20F2C" stroke-linecap="round" stroke-linejoin="round"/>
</svg>
