<svg width="50" height="50" viewBox="0 0 50 50" fill="none" xmlns="http://www.w3.org/2000/svg">
<g clip-path="url(#clip0)">
<path d="M26.2974 44.1665H23.7027C23.2422 44.1665 22.8691 44.5396 22.8691 45C22.8691 45.4601 23.2422 45.8331 23.7027 45.8331H26.2974C26.7578 45.8331 27.1309 45.4601 27.1309 45C27.1309 44.5396 26.7578 44.1665 26.2974 44.1665Z" fill="#B20F2C"/>
<path d="M38.4041 44.1665H35.8101C35.3496 44.1665 34.9766 44.5396 34.9766 45C34.9766 45.4601 35.3496 45.8331 35.8101 45.8331H38.4041C38.8645 45.8331 39.2376 45.4601 39.2376 45C39.2376 44.5396 38.8645 44.1665 38.4041 44.1665Z" fill="#B20F2C"/>
<path d="M32.3513 44.1665H29.757C29.2969 44.1665 28.9238 44.5396 28.9238 45C28.9238 45.4601 29.2969 45.8331 29.757 45.8331H32.3513C32.8114 45.8331 33.1845 45.4601 33.1845 45C33.1845 44.5396 32.8114 44.1665 32.3513 44.1665Z" fill="#B20F2C"/>
<path d="M44.4588 44.1665H41.8644C41.4043 44.1665 41.0312 44.5396 41.0312 45C41.0312 45.4601 41.4043 45.8331 41.8644 45.8331H44.4588C44.9188 45.8331 45.2919 45.4601 45.2919 45C45.2919 44.5396 44.9188 44.1665 44.4588 44.1665Z" fill="#B20F2C"/>
<path d="M14.1892 44.1665H11.5952C11.1348 44.1665 10.7617 44.5396 10.7617 45C10.7617 45.4601 11.1348 45.8331 11.5952 45.8331H14.1892C14.6497 45.8331 15.0227 45.4601 15.0227 45C15.0227 44.5396 14.6497 44.1665 14.1892 44.1665Z" fill="#B20F2C"/>
<path d="M20.2439 44.1665H17.6495C17.1895 44.1665 16.8164 44.5396 16.8164 45C16.8164 45.4601 17.1895 45.8331 17.6495 45.8331H20.2439C20.704 45.8331 21.077 45.4601 21.077 45C21.077 44.5396 20.704 44.1665 20.2439 44.1665Z" fill="#B20F2C"/>
<path d="M8.13649 44.1665H5.54211C5.08206 44.1665 4.70898 44.5396 4.70898 45C4.70898 45.4601 5.08206 45.8331 5.54211 45.8331H8.13649C8.59654 45.8331 8.96962 45.4601 8.96962 45C8.96962 44.5396 8.59654 44.1665 8.13649 44.1665Z" fill="#B20F2C"/>
<path d="M47.4998 0H2.50015C1.11923 0 0 1.11923 0 2.50015V9.16672C0 9.62677 0.373077 9.99985 0.833511 9.99985H2.41661L6.61926 25.7641L0.0717163 40.4949V40.5033C0.0717163 40.5117 0.0675201 40.5216 0.063324 40.5315C0.030899 40.6166 0.0129699 40.7066 0.00991816 40.7974C0.00991816 40.81 0.00267029 40.8207 0.00267029 40.8333V48.3334C0.00267029 49.2538 0.748825 50 1.66931 50H48.3334C49.2538 50 50 49.2538 50 48.3334V40.8333C50 40.8207 49.9935 40.81 49.9924 40.7982C49.9897 40.707 49.9718 40.6166 49.9393 40.5308C49.9352 40.5216 49.934 40.5117 49.931 40.5033V40.4949L43.3807 25.7641L47.5834 9.99985H49.1665C49.6269 9.99985 50 9.62677 50 9.16672V2.50015C50 1.11923 48.8808 0 47.4998 0V0ZM8.04176 26.6666H14.2418C13.95 26.7609 13.6585 26.8543 13.3801 26.9558C13.3625 26.9627 13.345 26.965 13.3282 26.9726C9.53331 28.3691 7.06596 30.4516 6.7276 32.8377C6.71349 32.8918 6.70509 32.9479 6.70242 33.004C6.70242 33.0109 6.70662 33.0158 6.70738 33.0227C6.69594 33.1493 6.66656 33.2726 6.66656 33.4V36.8999C6.69937 38.055 7.15485 39.1582 7.94678 40.0002H2.11334L8.04176 26.6666ZM41.2758 32.0641L28.9707 31.4484L36.34 28.6152C38.8374 29.5624 40.5567 30.7892 41.2758 32.0641ZM36.1317 40.0002C36.2633 39.9551 36.3998 39.9166 36.5292 39.8666C36.5559 39.8609 36.5807 39.8491 36.6074 39.8407C38.4842 39.2227 40.2088 38.2137 41.6668 36.8801V36.8958C41.6668 38.2107 40.5674 39.2876 39.5649 40.0002H36.1317ZM10.4351 40.0002C9.4326 39.2876 8.33321 38.2107 8.33321 36.8958V36.8801C9.79118 38.2137 11.5158 39.2227 13.3926 39.8407C13.4193 39.8491 13.4441 39.8609 13.4708 39.8666C13.6002 39.9132 13.7367 39.9551 13.8683 40.0002H10.4351ZM36.4407 38.1409L28.2082 33.0784L41.6248 33.7502C41.3776 35.3416 39.5134 36.9507 36.4407 38.1409ZM25.8335 39.9826V33.5743L34.3716 38.8241C31.5849 39.5641 28.7167 39.9532 25.8335 39.9826ZM8.37898 33.7502L21.7957 33.0784L13.5632 38.1409C10.4866 36.9507 8.62236 35.3416 8.37898 33.7502ZM24.1665 33.5743V39.9826C21.2833 39.954 18.4151 39.5653 15.6284 38.826L24.1665 33.5743ZM24.1665 30.8701L16.2201 27.8118C18.8225 27.177 21.4882 26.841 24.1665 26.8093V30.8701ZM13.66 28.6118L21.0293 31.4449L8.72421 32.061C9.44328 30.7892 11.1668 29.5624 13.66 28.6118ZM25.8335 30.8701V26.8093C28.5114 26.8402 31.1775 27.1755 33.7799 27.8091L25.8335 30.8701ZM1.66664 48.3334V45.8332H2.08321C2.54364 45.8332 2.91672 45.4601 2.91672 45.0001C2.91672 44.5396 2.54364 44.1666 2.08321 44.1666H1.66664V41.6668H48.3334V44.1666H47.9168C47.4564 44.1666 47.0833 44.5396 47.0833 45.0001C47.0833 45.4601 47.4564 45.8332 47.9168 45.8332H48.3334V48.3334H1.66664ZM42.0532 40.0002C42.8463 39.1571 43.3018 38.0524 43.3334 36.8958V33.3958C43.3334 33.2684 43.3041 33.1459 43.2926 33.0185C43.2926 33.0116 43.2968 33.0067 43.2976 33.0002C43.2949 32.9437 43.2865 32.888 43.2724 32.8335C42.934 30.4474 40.4667 28.3649 36.6726 26.9691C36.655 26.9608 36.6367 26.9573 36.6184 26.9508C36.3407 26.849 36.0493 26.7567 35.7582 26.6624H41.9582L47.884 39.996L42.0532 40.0002ZM41.8598 25H8.14018L4.14009 9.99985H45.8576L41.8598 25ZM30.8334 8.33321H19.1666V6.66656C19.1666 6.20651 19.5396 5.83344 20.0001 5.83344H29.9999C30.4604 5.83344 30.8334 6.20651 30.8334 6.66656V8.33321ZM48.3334 8.33321H32.5001V6.66656C32.5001 5.28603 31.3808 4.16679 29.9999 4.16679H20.0001C18.6192 4.16679 17.4999 5.28603 17.4999 6.66656V8.33321H1.66664V2.50015C1.66664 2.03972 2.03972 1.66664 2.50015 1.66664H47.4998C47.9603 1.66664 48.3334 2.03972 48.3334 2.50015V8.33321Z" fill="#B20F2C"/>
</g>
<defs>
<clipPath id="clip0">
<rect width="50" height="50" fill="white"/>
</clipPath>
</defs>
</svg>
