<svg width="70" height="70" viewBox="0 0 70 70" fill="none" xmlns="http://www.w3.org/2000/svg">
<path d="M65.3391 6.98835H42.0446V4.6589C42.0446 2.09651 39.9481 0 37.3857 0H4.7734C2.21101 0 0.114502 2.09651 0.114502 4.6589V30.2829C0.114502 43.0948 12.3441 43.0948 16.4207 43.0948C17.1195 43.0948 17.5854 42.629 17.5854 41.9301C17.5854 41.2313 17.1195 40.7654 16.4207 40.7654C13.8583 40.7654 11.7618 38.6689 11.7618 36.1065C11.7618 35.99 11.7618 35.7571 11.7618 35.6406C12.1112 33.1947 14.2077 31.4476 16.6536 31.4476H32.7268V33.777H22.2443C21.5455 33.777 21.0796 34.2429 21.0796 34.9418C21.0796 37.6206 22.1278 40.183 23.8749 42.0466C23.5255 43.2113 23.409 44.2596 23.409 45.4243C23.409 50.0832 26.2044 54.2762 30.3974 56.1398C30.3974 56.8386 30.0479 58.2363 26.9032 58.2363C23.642 58.2363 21.0796 60.7987 21.0796 64.0599V69.8835H23.409V64.0599C23.409 62.1963 24.8067 60.6822 26.6702 60.5657L32.3774 63.3611C32.8433 63.594 33.4257 63.827 33.8915 63.9434V69.8835H36.221V63.9434C36.8034 63.827 37.2692 63.7105 37.7351 63.4775L43.4423 60.6822C45.3059 60.7987 46.7035 62.3128 46.7035 64.1764V70H49.033V64.1764C49.033 60.9151 46.4706 58.3527 43.2093 58.3527C40.0646 58.3527 39.7152 56.9551 39.7152 56.2562C44.1411 54.3927 46.82 49.9667 46.7035 45.1913C46.7035 44.9584 46.7035 44.4925 46.7035 44.376C46.7035 42.7454 46.3541 41.1148 45.5388 39.7171H53.3425C55.7884 39.7171 57.8849 41.4642 58.2343 43.9102C58.4673 46.4725 56.6037 48.802 54.0413 49.0349C53.9248 49.0349 53.6919 49.0349 53.5754 49.0349C52.8766 49.0349 52.4107 49.5008 52.4107 50.1997C52.4107 50.8985 52.8766 51.3644 53.5754 51.3644C57.6519 51.3644 69.8816 51.3644 69.8816 38.5524V11.6473C69.998 9.08486 67.9015 6.98835 65.3391 6.98835ZM16.6536 29.1181C13.043 29.1181 9.8982 31.797 9.43231 35.4077C9.31583 37.1547 9.78172 38.9018 10.83 40.2995C5.12282 39.1348 2.44395 35.99 2.44395 30.2829V4.6589C2.44395 3.3777 3.49221 2.32945 4.7734 2.32945H37.3857C38.6669 2.32945 39.7152 3.3777 39.7152 4.6589V26.7887C39.7152 28.0699 38.6669 29.1181 37.3857 29.1181H16.6536ZM23.5255 36.1065H36.221C40.2975 36.1065 43.6752 39.1348 44.2576 43.0948H31.5621C27.4856 43.0948 24.1078 40.0666 23.5255 36.1065ZM38.201 54.1597C37.7351 54.2762 37.3857 54.7421 37.3857 55.208V55.9068C37.2692 57.5374 38.201 59.1681 39.7152 59.8669L36.6869 61.381C35.6386 61.8469 34.3574 61.8469 33.3092 61.381L30.3974 59.8669C31.9115 59.1681 32.8433 57.5374 32.7268 55.9068V55.3245C32.7268 54.8586 32.3774 54.3927 31.9115 54.2762C28.1844 52.8785 25.7385 49.3844 25.7385 45.4243C25.7385 44.8419 25.7385 44.2596 25.8549 43.7937C27.4856 44.8419 29.4656 45.4243 31.5621 45.4243H44.3741C44.3741 49.3844 41.9282 52.8785 38.201 54.1597ZM67.6686 38.4359C67.6686 44.1431 64.9897 47.2879 59.2826 48.4526C60.3308 47.0549 60.7967 45.3078 60.6802 43.5607C60.2143 39.9501 57.1861 37.2712 53.4589 37.2712H44.0247C42.0446 35.0582 39.2493 33.777 36.221 33.777H35.0563V31.4476H37.3857C39.9481 31.4476 42.0446 29.3511 42.0446 26.7887V9.3178H65.3391C66.6203 9.3178 67.6686 10.3661 67.6686 11.6473V38.4359Z" fill="#EB4839"/>
<path d="M26.9037 12.8118H25.739C25.0402 12.8118 24.5743 12.3459 24.5743 11.647V8.15287C24.5743 6.17283 23.0601 4.65869 21.0801 4.65869C19.1001 4.65869 17.5859 6.17283 17.5859 8.15287V11.647C17.5859 12.3459 17.12 12.8118 16.4212 12.8118C16.4212 12.1129 15.9553 11.647 15.2565 11.647H10.5976C9.89875 11.647 9.43286 12.1129 9.43286 12.8118V25.6238C9.43286 26.3226 9.89875 26.7885 10.5976 26.7885H15.2565C15.9553 26.7885 16.4212 26.3226 16.4212 25.6238H26.9037C28.8838 25.6238 30.3979 24.1096 30.3979 22.1296V16.3059C30.3979 14.3259 28.8838 12.8118 26.9037 12.8118ZM14.0918 24.459H11.7623V13.9765H14.0918V24.459ZM28.0685 22.1296C28.0685 22.8284 27.6026 23.2943 26.9037 23.2943H16.4212V15.1412C18.4012 15.1412 19.9154 13.6271 19.9154 11.647V8.15287C19.9154 7.45403 20.3813 6.98814 21.0801 6.98814C21.779 6.98814 22.2448 7.45403 22.2448 8.15287V11.647C22.2448 13.6271 23.759 15.1412 25.739 15.1412H26.9037C27.6026 15.1412 28.0685 15.6071 28.0685 16.3059V22.1296Z" fill="#EB4839"/>
<path d="M64.1739 11.6475H59.515C58.8161 11.6475 58.3502 12.1134 58.3502 12.8122H47.8677C45.8877 12.8122 44.3735 14.3263 44.3735 16.3064V22.13C44.3735 24.11 45.8877 25.6242 47.8677 25.6242H49.0324C49.7313 25.6242 50.1972 26.0901 50.1972 26.7889V30.2831C50.1972 32.2631 51.7113 33.7772 53.6913 33.7772C55.6714 33.7772 57.1855 32.2631 57.1855 30.2831V26.7889C57.1855 26.0901 57.6514 25.6242 58.3502 25.6242C58.3502 26.323 58.8161 26.7889 59.515 26.7889H64.1739C64.8727 26.7889 65.3386 26.323 65.3386 25.6242V12.8122C65.3386 12.1134 64.8727 11.6475 64.1739 11.6475ZM58.3502 23.2947C56.3702 23.2947 54.8561 24.8089 54.8561 26.7889V30.2831C54.8561 30.9819 54.3902 31.4478 53.6913 31.4478C52.9925 31.4478 52.5266 30.9819 52.5266 30.2831V26.7889C52.5266 24.8089 51.0125 23.2947 49.0324 23.2947H47.8677C47.1689 23.2947 46.703 22.8288 46.703 22.13V16.3064C46.703 15.6075 47.1689 15.1416 47.8677 15.1416H58.3502V23.2947ZM63.0092 24.4594H60.6797V13.9769H63.0092V24.4594Z" fill="#EB4839"/>
<path d="M47.8678 30.2827H43.2089V32.6122H47.8678V30.2827Z" fill="#EB4839"/>
<path d="M31.562 5.82342V4.65869H29.2326V5.82342H28.0679V8.15287H29.2326V9.3176H31.562V8.15287H32.7268V5.82342H31.562Z" fill="#EB4839"/>
</svg>
