<svg width="50" height="50" viewBox="0 0 50 50" fill="none" xmlns="http://www.w3.org/2000/svg">
<path d="M25.0013 22.5002C25.4615 22.5002 25.8346 22.1271 25.8346 21.6668C25.8346 21.2066 25.4615 20.8335 25.0013 20.8335C24.5411 20.8335 24.168 21.2066 24.168 21.6668C24.168 22.1271 24.5411 22.5002 25.0013 22.5002Z" fill="black"/>
<path d="M25.0013 22.5002C25.4615 22.5002 25.8346 22.1271 25.8346 21.6668C25.8346 21.2066 25.4615 20.8335 25.0013 20.8335C24.5411 20.8335 24.168 21.2066 24.168 21.6668C24.168 22.1271 24.5411 22.5002 25.0013 22.5002Z" fill="#EB4839"/>
<path d="M27.5013 20.8332C27.9615 20.8332 28.3346 20.4601 28.3346 19.9998C28.3346 19.5396 27.9615 19.1665 27.5013 19.1665C27.0411 19.1665 26.668 19.5396 26.668 19.9998C26.668 20.4601 27.0411 20.8332 27.5013 20.8332Z" fill="black"/>
<path d="M27.5013 20.8332C27.9615 20.8332 28.3346 20.4601 28.3346 19.9998C28.3346 19.5396 27.9615 19.1665 27.5013 19.1665C27.0411 19.1665 26.668 19.5396 26.668 19.9998C26.668 20.4601 27.0411 20.8332 27.5013 20.8332Z" fill="#EB4839"/>
<path d="M22.5013 20.8332C22.9615 20.8332 23.3346 20.4601 23.3346 19.9998C23.3346 19.5396 22.9615 19.1665 22.5013 19.1665C22.0411 19.1665 21.668 19.5396 21.668 19.9998C21.668 20.4601 22.0411 20.8332 22.5013 20.8332Z" fill="black"/>
<path d="M22.5013 20.8332C22.9615 20.8332 23.3346 20.4601 23.3346 19.9998C23.3346 19.5396 22.9615 19.1665 22.5013 19.1665C22.0411 19.1665 21.668 19.5396 21.668 19.9998C21.668 20.4601 22.0411 20.8332 22.5013 20.8332Z" fill="#EB4839"/>
<path d="M20.0013 19.1667C20.4615 19.1667 20.8346 18.7936 20.8346 18.3333C20.8346 17.8731 20.4615 17.5 20.0013 17.5C19.5411 17.5 19.168 17.8731 19.168 18.3333C19.168 18.7936 19.5411 19.1667 20.0013 19.1667Z" fill="black"/>
<path d="M20.0013 19.1667C20.4615 19.1667 20.8346 18.7936 20.8346 18.3333C20.8346 17.8731 20.4615 17.5 20.0013 17.5C19.5411 17.5 19.168 17.8731 19.168 18.3333C19.168 18.7936 19.5411 19.1667 20.0013 19.1667Z" fill="#EB4839"/>
<path d="M30.0013 19.1667C30.4615 19.1667 30.8346 18.7936 30.8346 18.3333C30.8346 17.8731 30.4615 17.5 30.0013 17.5C29.5411 17.5 29.168 17.8731 29.168 18.3333C29.168 18.7936 29.5411 19.1667 30.0013 19.1667Z" fill="black"/>
<path d="M30.0013 19.1667C30.4615 19.1667 30.8346 18.7936 30.8346 18.3333C30.8346 17.8731 30.4615 17.5 30.0013 17.5C29.5411 17.5 29.168 17.8731 29.168 18.3333C29.168 18.7936 29.5411 19.1667 30.0013 19.1667Z" fill="#EB4839"/>
<path d="M32.5013 17.5002C32.9615 17.5002 33.3346 17.1271 33.3346 16.6668C33.3346 16.2066 32.9615 15.8335 32.5013 15.8335C32.0411 15.8335 31.668 16.2066 31.668 16.6668C31.668 17.1271 32.0411 17.5002 32.5013 17.5002Z" fill="black"/>
<path d="M32.5013 17.5002C32.9615 17.5002 33.3346 17.1271 33.3346 16.6668C33.3346 16.2066 32.9615 15.8335 32.5013 15.8335C32.0411 15.8335 31.668 16.2066 31.668 16.6668C31.668 17.1271 32.0411 17.5002 32.5013 17.5002Z" fill="#EB4839"/>
<path d="M17.5013 17.5002C17.9615 17.5002 18.3346 17.1271 18.3346 16.6668C18.3346 16.2066 17.9615 15.8335 17.5013 15.8335C17.0411 15.8335 16.668 16.2066 16.668 16.6668C16.668 17.1271 17.0411 17.5002 17.5013 17.5002Z" fill="black"/>
<path d="M17.5013 17.5002C17.9615 17.5002 18.3346 17.1271 18.3346 16.6668C18.3346 16.2066 17.9615 15.8335 17.5013 15.8335C17.0411 15.8335 16.668 16.2066 16.668 16.6668C16.668 17.1271 17.0411 17.5002 17.5013 17.5002Z" fill="#EB4839"/>
<path d="M25.0013 19.1667C25.4615 19.1667 25.8346 18.7936 25.8346 18.3333C25.8346 17.8731 25.4615 17.5 25.0013 17.5C24.5411 17.5 24.168 17.8731 24.168 18.3333C24.168 18.7936 24.5411 19.1667 25.0013 19.1667Z" fill="black"/>
<path d="M25.0013 19.1667C25.4615 19.1667 25.8346 18.7936 25.8346 18.3333C25.8346 17.8731 25.4615 17.5 25.0013 17.5C24.5411 17.5 24.168 17.8731 24.168 18.3333C24.168 18.7936 24.5411 19.1667 25.0013 19.1667Z" fill="#EB4839"/>
<path d="M25.0013 29.1667C25.4615 29.1667 25.8346 28.7936 25.8346 28.3333C25.8346 27.8731 25.4615 27.5 25.0013 27.5C24.5411 27.5 24.168 27.8731 24.168 28.3333C24.168 28.7936 24.5411 29.1667 25.0013 29.1667Z" fill="black"/>
<path d="M25.0013 29.1667C25.4615 29.1667 25.8346 28.7936 25.8346 28.3333C25.8346 27.8731 25.4615 27.5 25.0013 27.5C24.5411 27.5 24.168 27.8731 24.168 28.3333C24.168 28.7936 24.5411 29.1667 25.0013 29.1667Z" fill="#EB4839"/>
<path d="M25.0013 31.6667C25.4615 31.6667 25.8346 31.2936 25.8346 30.8333C25.8346 30.3731 25.4615 30 25.0013 30C24.5411 30 24.168 30.3731 24.168 30.8333C24.168 31.2936 24.5411 31.6667 25.0013 31.6667Z" fill="black"/>
<path d="M25.0013 31.6667C25.4615 31.6667 25.8346 31.2936 25.8346 30.8333C25.8346 30.3731 25.4615 30 25.0013 30C24.5411 30 24.168 30.3731 24.168 30.8333C24.168 31.2936 24.5411 31.6667 25.0013 31.6667Z" fill="#EB4839"/>
<path d="M25.0013 34.1667C25.4615 34.1667 25.8346 33.7936 25.8346 33.3333C25.8346 32.8731 25.4615 32.5 25.0013 32.5C24.5411 32.5 24.168 32.8731 24.168 33.3333C24.168 33.7936 24.5411 34.1667 25.0013 34.1667Z" fill="black"/>
<path d="M25.0013 34.1667C25.4615 34.1667 25.8346 33.7936 25.8346 33.3333C25.8346 32.8731 25.4615 32.5 25.0013 32.5C24.5411 32.5 24.168 32.8731 24.168 33.3333C24.168 33.7936 24.5411 34.1667 25.0013 34.1667Z" fill="#EB4839"/>
<path d="M25.0013 36.6667C25.4615 36.6667 25.8346 36.2936 25.8346 35.8333C25.8346 35.3731 25.4615 35 25.0013 35C24.5411 35 24.168 35.3731 24.168 35.8333C24.168 36.2936 24.5411 36.6667 25.0013 36.6667Z" fill="black"/>
<path d="M25.0013 36.6667C25.4615 36.6667 25.8346 36.2936 25.8346 35.8333C25.8346 35.3731 25.4615 35 25.0013 35C24.5411 35 24.168 35.3731 24.168 35.8333C24.168 36.2936 24.5411 36.6667 25.0013 36.6667Z" fill="#EB4839"/>
<path d="M25.0013 39.1667C25.4615 39.1667 25.8346 38.7936 25.8346 38.3333C25.8346 37.8731 25.4615 37.5 25.0013 37.5C24.5411 37.5 24.168 37.8731 24.168 38.3333C24.168 38.7936 24.5411 39.1667 25.0013 39.1667Z" fill="black"/>
<path d="M25.0013 39.1667C25.4615 39.1667 25.8346 38.7936 25.8346 38.3333C25.8346 37.8731 25.4615 37.5 25.0013 37.5C24.5411 37.5 24.168 37.8731 24.168 38.3333C24.168 38.7936 24.5411 39.1667 25.0013 39.1667Z" fill="#EB4839"/>
<path d="M25.0013 41.6667C25.4615 41.6667 25.8346 41.2936 25.8346 40.8333C25.8346 40.3731 25.4615 40 25.0013 40C24.5411 40 24.168 40.3731 24.168 40.8333C24.168 41.2936 24.5411 41.6667 25.0013 41.6667Z" fill="black"/>
<path d="M25.0013 41.6667C25.4615 41.6667 25.8346 41.2936 25.8346 40.8333C25.8346 40.3731 25.4615 40 25.0013 40C24.5411 40 24.168 40.3731 24.168 40.8333C24.168 41.2936 24.5411 41.6667 25.0013 41.6667Z" fill="#EB4839"/>
<path d="M45.0013 48.3333H42.5013V45H38.3346V36.4817C38.3346 34.2317 37.2163 32.1417 35.3438 30.8933L26.5038 25L35.3438 19.1067C37.2163 17.8583 38.3346 15.7683 38.3346 13.5183V5H42.5013V1.66667H45.0013C45.4613 1.66667 45.8346 1.29417 45.8346 0.833333C45.8346 0.3725 45.4613 0 45.0013 0H42.5013H41.668H8.33464H7.5013H5.0013C4.5413 0 4.16797 0.3725 4.16797 0.833333C4.16797 1.29417 4.5413 1.66667 5.0013 1.66667H7.5013V5H11.668V13.5183C11.668 15.7683 12.7863 17.8583 14.6588 19.1067L23.4988 25L14.6588 30.8933C12.7863 32.1417 11.668 34.2317 11.668 36.4817V45H7.5013V48.3333H5.0013C4.5413 48.3333 4.16797 48.7058 4.16797 49.1667C4.16797 49.6275 4.5413 50 5.0013 50H7.5013H8.33464H41.668H42.5013H45.0013C45.4613 50 45.8346 49.6275 45.8346 49.1667C45.8346 48.7058 45.4613 48.3333 45.0013 48.3333ZM9.16797 3.33333V1.66667H40.8346V3.33333H38.3346H11.668H9.16797ZM15.583 17.72C14.1755 16.7808 13.3346 15.21 13.3346 13.5183V5H36.668V13.5183C36.668 15.21 35.8271 16.7808 34.4196 17.72L25.0013 23.9983L15.583 17.72ZM13.3346 36.4817C13.3346 34.79 14.1755 33.2192 15.583 32.28L25.0013 26.0017L34.4196 32.28C35.8271 33.2192 36.668 34.79 36.668 36.4817V45H13.3346V36.4817ZM9.16797 46.6667H11.668H38.3346H40.8346V48.3333H9.16797V46.6667Z" fill="black"/>
<path d="M45.0013 48.3333H42.5013V45H38.3346V36.4817C38.3346 34.2317 37.2163 32.1417 35.3438 30.8933L26.5038 25L35.3438 19.1067C37.2163 17.8583 38.3346 15.7683 38.3346 13.5183V5H42.5013V1.66667H45.0013C45.4613 1.66667 45.8346 1.29417 45.8346 0.833333C45.8346 0.3725 45.4613 0 45.0013 0H42.5013H41.668H8.33464H7.5013H5.0013C4.5413 0 4.16797 0.3725 4.16797 0.833333C4.16797 1.29417 4.5413 1.66667 5.0013 1.66667H7.5013V5H11.668V13.5183C11.668 15.7683 12.7863 17.8583 14.6588 19.1067L23.4988 25L14.6588 30.8933C12.7863 32.1417 11.668 34.2317 11.668 36.4817V45H7.5013V48.3333H5.0013C4.5413 48.3333 4.16797 48.7058 4.16797 49.1667C4.16797 49.6275 4.5413 50 5.0013 50H7.5013H8.33464H41.668H42.5013H45.0013C45.4613 50 45.8346 49.6275 45.8346 49.1667C45.8346 48.7058 45.4613 48.3333 45.0013 48.3333ZM9.16797 3.33333V1.66667H40.8346V3.33333H38.3346H11.668H9.16797ZM15.583 17.72C14.1755 16.7808 13.3346 15.21 13.3346 13.5183V5H36.668V13.5183C36.668 15.21 35.8271 16.7808 34.4196 17.72L25.0013 23.9983L15.583 17.72ZM13.3346 36.4817C13.3346 34.79 14.1755 33.2192 15.583 32.28L25.0013 26.0017L34.4196 32.28C35.8271 33.2192 36.668 34.79 36.668 36.4817V45H13.3346V36.4817ZM9.16797 46.6667H11.668H38.3346H40.8346V48.3333H9.16797V46.6667Z" fill="#EB4839"/>
</svg>
