<svg width="70" height="70" viewBox="0 0 70 70" fill="none" xmlns="http://www.w3.org/2000/svg">
<path d="M69.8841 21.8653C68.8624 10.6189 60.9021 2.45935 50.94 2.45935C44.3031 2.45935 38.2262 6.03091 34.8067 11.7551C31.4183 5.95686 25.5904 2.45801 19.0599 2.45801C9.0991 2.45801 1.13749 10.6175 0.117048 21.8639C0.0362737 22.3607 -0.294899 24.9751 0.712082 29.2386C2.16332 35.3882 5.51544 40.9818 10.4036 45.4109L34.7906 67.5416L59.5962 45.4122C64.4844 40.9818 67.8365 35.3895 69.2878 29.2386C70.2947 24.9764 69.9636 22.362 69.8841 21.8653ZM66.6667 28.622C65.342 34.2385 62.2712 39.3555 57.795 43.4104L34.8067 63.9202L12.2129 43.4157C7.72864 39.3528 4.65923 34.2371 3.33319 28.6207C2.38006 24.586 2.77182 22.3068 2.77316 22.292L2.79336 22.1561C3.66841 12.303 10.5086 5.15047 19.0599 5.15047C25.3697 5.15047 30.9242 9.02762 33.5601 15.2674L34.8 18.2062L36.0399 15.2674C38.6341 9.1232 44.4821 5.15182 50.9413 5.15182C59.4912 5.15182 66.3328 12.3043 67.2253 22.2853C67.228 22.3068 67.6198 24.5874 66.6667 28.622Z" fill="#EB4839"/>
<path d="M21.5381 10.6406C14.115 10.6406 8.07581 16.6798 8.07581 24.1029C8.07581 24.8474 8.67757 25.4492 9.42204 25.4492C10.1665 25.4492 10.7683 24.8474 10.7683 24.1029C10.7683 18.1647 15.5999 13.3331 21.5381 13.3331C22.2826 13.3331 22.8844 12.7313 22.8844 11.9869C22.8844 11.2424 22.2812 10.6406 21.5381 10.6406Z" fill="#EB4839"/>
</svg>
