<svg width="70" height="70" viewBox="0 0 70 70" fill="none" xmlns="http://www.w3.org/2000/svg">
<g clip-path="url(#clip0)">
<path d="M64.7548 13.0331C64.4522 13.0332 64.1504 13.0642 63.8541 13.1256C62.012 9.79161 57.8159 8.58234 54.4819 10.4245C53.3452 11.0526 52.4089 11.9889 51.7808 13.1256C51.4845 13.0642 51.1827 13.0332 50.8801 13.0331C48.3258 13.0331 46.2552 15.1037 46.2552 17.658C46.2585 18.1839 46.3527 18.7054 46.5338 19.1992C46.697 19.6614 47.1339 19.9704 47.6242 19.9704H68.0108C68.501 19.9704 68.9379 19.6614 69.1011 19.1992C69.2822 18.7054 69.3764 18.1839 69.3797 17.658C69.3797 15.1037 67.3091 13.0331 64.7548 13.0331ZM48.5676 17.658C48.5749 16.3809 49.6161 15.3515 50.8932 15.3587C51.2385 15.3607 51.5789 15.4399 51.8895 15.5907C52.463 15.8715 53.1556 15.6343 53.4364 15.061C53.4552 15.0227 53.4718 14.9834 53.4862 14.9432C54.3296 12.5511 56.9525 11.2956 59.3445 12.139C60.6554 12.6012 61.6865 13.6323 62.1487 14.9432C62.3646 15.5441 63.0267 15.8563 63.6276 15.6405C63.6678 15.6261 63.7071 15.6094 63.7454 15.5907C64.8944 15.0332 66.2779 15.5128 66.8353 16.6618C66.986 16.9724 67.0652 17.3127 67.0673 17.658H48.5676Z" fill="#EB4839"/>
<path d="M12.7245 7.25221C12.1711 7.25192 11.6207 7.33257 11.0908 7.49155C8.04121 5.19008 3.70334 5.79667 1.40187 8.84621C0.491772 10.0522 0.00153151 11.5227 0.00601188 13.0333C0.00601188 13.6719 0.523712 14.1896 1.16224 14.1896H17.3494C17.9879 14.1896 18.5056 13.6719 18.5056 13.0333C18.5017 9.84216 15.9157 7.25611 12.7245 7.25221ZM2.46531 11.8771C2.99471 9.83652 4.83528 8.41089 6.94337 8.40844C8.1074 8.4122 9.22678 8.8572 10.0756 9.65369C10.4136 9.96732 10.9058 10.05 11.3278 9.86413C13.0704 9.087 15.113 9.86962 15.8903 11.6122C15.929 11.6991 15.9641 11.7874 15.9955 11.8771H2.46531Z" fill="#EB4839"/>
<path d="M10.4125 19.9707C7.21977 19.9707 4.63141 22.5591 4.63141 25.7518C4.63141 26.3904 5.14911 26.9081 5.78764 26.9081H15.0375C15.676 26.9081 16.1937 26.3904 16.1937 25.7518C16.1937 22.5591 13.6053 19.9707 10.4125 19.9707ZM7.14158 24.5956C7.77909 22.7892 9.76043 21.8415 11.5669 22.479C12.5562 22.8282 13.3343 23.6063 13.6835 24.5956H7.14158Z" fill="#EB4839"/>
<path d="M69.8708 67.9999L51.9066 33.3131C51.7078 32.9296 51.3118 32.6888 50.8798 32.6888H45.7924L35.8489 13.9024V9.24165L45.4641 6.03659C46.0707 5.83714 46.4009 5.18373 46.2014 4.57714C46.0867 4.2281 45.8131 3.95451 45.4641 3.83976L35.058 0.371076C34.4522 0.169314 33.7974 0.496816 33.5957 1.10268C33.5562 1.22134 33.5361 1.34563 33.5364 1.47065V13.9267L20.0907 41.9386H13.795C13.3542 41.9366 12.9505 42.1854 12.7544 42.5803L0.121479 68.0173C-0.162663 68.5892 0.0704609 69.2831 0.642359 69.5672C0.803798 69.6474 0.981857 69.6888 1.16208 69.688H18.5055V67.3756H3.02708L9.37129 54.6016L12.9186 59.9202L14.8426 58.6368L10.5576 52.2094L14.5119 44.251H18.9472L16.3144 49.5153L18.3841 50.549L21.8528 43.6116L21.8632 43.5966L28.0259 30.7625L30.2366 34.4462L32.2183 33.2553L29.2249 28.265L34.747 16.7617L43.1782 32.6888H37.0051C36.5647 32.6863 36.1614 32.9343 35.9645 33.3282L32.8219 39.6261H30.0677V41.9386H39.8194L42.9516 47.159L44.9334 45.968L41.4647 40.1869C41.2557 39.839 40.8796 39.6263 40.4738 39.6261H35.4072L37.7197 35.0012H50.1768L54.2167 42.8023L54.1011 42.741L49.8612 50.6415L51.8985 51.7353L55.4319 45.1448L66.9433 67.3756H57.8172V69.688H68.8441C69.4827 69.688 70.0004 69.1705 70.0005 68.532C70.0004 68.3468 69.956 68.1644 69.8708 67.9999ZM35.8489 3.07433L41.4427 4.93933L35.8489 6.80432V3.07433Z" fill="#EB4839"/>
<path d="M55.3662 67.9839L47.2727 52.9529C47.0709 52.5781 46.6797 52.3446 46.254 52.3447H37.0042C36.5984 52.3449 36.2223 52.5576 36.0133 52.9055L32.8811 58.1259H26.5982C26.1599 58.1257 25.7592 58.3733 25.5633 58.7653L20.9384 68.0151C20.653 68.5863 20.8847 69.2807 21.4558 69.5662C21.6165 69.6464 21.7936 69.6881 21.9732 69.6881H54.3476C54.7543 69.688 55.131 69.4741 55.3397 69.1251C55.5486 68.7759 55.5588 68.3424 55.3662 67.9839ZM23.844 67.3757L27.3127 60.4383H33.5355C33.9414 60.4382 34.3174 60.2254 34.5264 59.8775L37.6586 54.6572H45.5603L47.4287 58.1259H43.9416C43.5776 58.1259 43.235 58.2973 43.0166 58.5884L39.5479 63.2133L41.3979 64.6007L44.5197 60.4383H48.6821L52.4179 67.3757H23.844Z" fill="#EB4839"/>
</g>
<defs>
<clipPath id="clip0">
<rect width="70" height="70" fill="white"/>
</clipPath>
</defs>
</svg>
