<svg width="70" height="70" viewBox="0 0 70 70" fill="none" xmlns="http://www.w3.org/2000/svg">
<g clip-path="url(#clip0)">
<path d="M69.5926 0.394437C69.2191 0.025844 68.6669 -0.0972026 68.1729 0.0797111L11.3865 20.3273C9.41367 19.1209 6.91131 18.8384 4.61621 19.7888C0.806554 21.3669 -1.0092 25.7502 0.5688 29.5602C4.29014 38.5437 9.66304 46.5851 16.5387 53.4608C23.4145 60.3365 31.4557 65.7095 40.4393 69.4307C41.3723 69.8171 42.3393 70 43.2914 70C46.2274 69.9999 49.0191 68.2601 50.2106 65.3832C51.0123 63.4475 50.9366 61.3642 50.1697 59.5754L69.9257 1.80988C70.0955 1.31332 69.9661 0.763167 69.5926 0.394437ZM19.9847 20.1645L26.0031 18.0188C26.7096 18.7716 27.054 19.8079 26.9161 20.856C26.7944 21.7788 26.3208 22.5993 25.5824 23.166C24.844 23.7327 23.9296 23.9776 23.0061 23.8563C22.0834 23.7347 21.2631 23.2613 20.6964 22.5227C20.1742 21.8423 19.9258 21.0121 19.9847 20.1645ZM47.6843 64.3366C46.6833 66.7535 43.9021 67.9053 41.4858 66.904C23.9803 59.6531 10.3464 46.019 3.09522 28.5136C2.61028 27.3429 2.61028 26.0535 3.09522 24.8826C3.58016 23.7119 4.49194 22.8001 5.66266 22.3152C6.83338 21.8303 8.12291 21.8303 9.29363 22.3152C10.4643 22.8001 11.3761 23.7119 11.8611 24.8826C14.9647 32.3758 19.4463 39.0829 25.1814 44.818C30.9165 50.553 37.6236 55.0345 45.1167 58.1383C47.5336 59.1392 48.6855 61.9199 47.6843 64.3366ZM59.8308 22.877C59.7071 22.874 59.5832 22.8669 59.4596 22.8507C58.5369 22.7292 57.7166 22.2556 57.15 21.5172C56.5833 20.7788 56.3382 19.8637 56.4596 18.941C56.7105 17.0359 58.4639 15.6904 60.3696 15.9408C60.9575 16.0182 61.5094 16.2463 61.9801 16.5931L59.8308 22.877ZM62.8889 13.9348C62.2228 13.572 61.491 13.3305 60.7264 13.2298C57.3261 12.781 54.1962 15.1841 53.7486 18.5841C53.5318 20.2311 53.9693 21.8639 54.9806 23.1819C55.9547 24.4513 57.3492 25.2806 58.9223 25.5335L56.2049 33.4795L53.0798 31.0814C52.4808 30.6221 51.6224 30.7347 51.1628 31.3338C50.7032 31.9329 50.8163 32.7911 51.4152 33.2508L55.2714 36.2096L48.2038 56.8753C47.611 56.3599 46.9284 55.9287 46.1637 55.6119C31.6743 49.6101 20.3896 38.3253 14.388 23.8362C14.1794 23.3322 13.9202 22.8644 13.6212 22.4335L17.2824 21.1281C17.4102 22.2311 17.8336 23.2833 18.5272 24.1871C19.5384 25.5051 21.0025 26.3503 22.6494 26.567C22.9253 26.6034 23.2004 26.6214 23.4741 26.6214C24.8341 26.6214 26.1499 26.1771 27.2471 25.3353C28.5652 24.3239 29.4102 22.86 29.6272 21.2128C29.8218 19.7342 29.4767 18.2697 28.7019 17.0565L45.697 10.9968L46.3411 12.5519C46.5593 13.0784 47.0683 13.3962 47.6047 13.3962C47.7791 13.3962 47.9562 13.3626 48.1274 13.2918C48.825 13.0029 49.1562 12.2029 48.8673 11.5054L48.2759 10.0774L66.421 3.60759L62.8889 13.9348Z" fill="#EB4839"/>
<path d="M14.7655 36.6786C14.7614 36.6722 14.7501 36.6548 14.7457 36.6485C14.327 36.0206 13.4798 35.852 12.8516 36.2702C12.2245 36.6878 12.0544 37.5353 12.4695 38.1635C12.7313 38.5657 13.1693 38.7852 13.6168 38.7852C13.87 38.7852 14.1261 38.7149 14.3547 38.5679C14.9899 38.1595 15.1737 37.3137 14.7655 36.6786Z" fill="#EB4839"/>
<path d="M12.6862 33.2818C11.3539 30.9458 10.1562 28.501 9.12659 26.0156C8.83771 25.3178 8.03749 24.9869 7.34036 25.2758C6.64269 25.5647 6.31156 26.3645 6.60058 27.0621C7.67382 29.653 8.92233 32.2014 10.3111 34.6364C10.5634 35.0785 11.0249 35.3266 11.4999 35.3266C11.7296 35.3266 11.9624 35.2686 12.176 35.1468C12.8318 34.7726 13.0604 33.9376 12.6862 33.2818Z" fill="#EB4839"/>
<path d="M42.7842 17.4982C42.5132 17.4624 42.238 17.4443 41.9662 17.4443C38.8604 17.4443 36.2121 19.7692 35.8064 22.8522C35.3587 26.2522 37.7605 29.3825 41.1604 29.8301C41.4314 29.8659 41.7066 29.8839 41.9784 29.8839C45.0841 29.8839 47.7323 27.559 48.1382 24.4758C48.5857 21.076 46.184 17.9458 42.7842 17.4982ZM45.4274 24.1189C45.1999 25.8466 43.7172 27.1494 41.9784 27.1494C41.8255 27.1494 41.6704 27.1393 41.5174 27.1191C39.6122 26.8682 38.2666 25.1142 38.5174 23.2091C38.7449 21.4815 40.2274 20.1788 41.9662 20.1788C42.1191 20.1788 42.2742 20.189 42.4272 20.2092C44.3323 20.4602 45.6781 22.214 45.4274 24.1189Z" fill="#EB4839"/>
<path d="M42.428 34.5041C42.1569 34.4682 41.8818 34.4502 41.61 34.4502C38.5042 34.4502 35.856 36.7751 35.4502 39.8582C35.2332 41.5053 35.6707 43.138 36.682 44.4561C37.6932 45.774 39.1572 46.6192 40.8042 46.8362C41.0751 46.8719 41.3501 46.8898 41.6218 46.8898C44.7276 46.8898 47.376 44.5649 47.7819 41.4816C48.2297 38.082 45.8278 34.952 42.428 34.5041ZM45.0712 41.1249C44.8437 42.8526 43.3609 44.1554 41.6221 44.1554C41.4694 44.1554 41.3142 44.1452 41.1613 44.1251C40.2385 44.0034 39.4182 43.5298 38.8515 42.7914C38.2848 42.053 38.0396 41.1381 38.1612 40.2151C38.3887 38.4875 39.8714 37.1847 41.61 37.1847C41.7629 37.1847 41.9181 37.1948 42.0711 37.2151C43.976 37.4659 45.3218 39.2199 45.0712 41.1249Z" fill="#EB4839"/>
<path d="M33.4111 28.8402L29.209 28.2869C28.4607 28.1875 27.7735 28.7153 27.675 29.4638C27.5763 30.2125 28.1033 30.8992 28.8518 30.9978L33.054 31.5511C33.1146 31.5591 33.1747 31.563 33.2342 31.563C33.9097 31.563 34.4974 31.0622 34.5879 30.3742C34.6867 29.6257 34.1598 28.9388 33.4111 28.8402Z" fill="#EB4839"/>
<path d="M31.2792 38.9295L30.9081 36.1098C30.8096 35.3611 30.123 34.834 29.3743 34.9328C28.6256 35.0314 28.0987 35.718 28.1973 36.4667L28.5685 39.2863C28.659 39.9744 29.2465 40.4752 29.9221 40.4752C29.9816 40.4752 30.0417 40.4714 30.1022 40.4633C30.8508 40.3648 31.3778 39.6782 31.2792 38.9295Z" fill="#EB4839"/>
</g>
<defs>
<clipPath id="clip0">
<rect width="70" height="70" fill="white"/>
</clipPath>
</defs>
</svg>
