<svg width="70" height="70" viewBox="0 0 70 70" fill="none" xmlns="http://www.w3.org/2000/svg">
<path d="M17.2539 48.0035C17.2539 48.6063 16.7651 49.095 16.1623 49.095H15.8713C15.2685 49.095 14.7797 48.6063 14.7797 48.0035C14.7797 47.4006 15.2685 46.9119 15.8713 46.9119H16.1623C16.7651 46.9119 17.2539 47.4006 17.2539 48.0035ZM10.5489 37.9621H10.258C9.65518 37.9621 9.16647 38.4508 9.16647 39.0536C9.16647 39.6565 9.65518 40.1452 10.258 40.1452H10.5489C11.1517 40.1452 11.6404 39.6565 11.6404 39.0536C11.6404 38.4508 11.1519 37.9621 10.5489 37.9621ZM21.0982 29.1525H20.807C20.2042 29.1525 19.7155 29.6412 19.7155 30.2441C19.7155 30.8469 20.2042 31.3356 20.807 31.3356H21.0982C21.701 31.3356 22.1897 30.8469 22.1897 30.2441C22.1897 29.6411 21.701 29.1525 21.0982 29.1525ZM27.8107 14.8566H27.52C26.9171 14.8566 26.4284 15.3454 26.4284 15.9482C26.4284 16.5511 26.9171 17.0398 27.52 17.0398H27.8107C28.4135 17.0398 28.9022 16.5511 28.9022 15.9482C28.9022 15.3455 28.4135 14.8566 27.8107 14.8566ZM41.3569 27.0538C41.3569 25.1256 42.926 23.5569 44.8543 23.5569C46.7825 23.5569 48.3512 25.1256 48.3512 27.0538C48.3512 28.9821 46.7825 30.5508 44.8543 30.5508C42.9258 30.5507 41.3569 28.9819 41.3569 27.0538ZM43.5401 27.0538C43.5401 27.7782 44.1295 28.3677 44.8543 28.3677C45.5788 28.3677 46.1681 27.7782 46.1681 27.0538C46.1681 26.3293 45.5788 25.74 44.8543 25.74C44.1295 25.7398 43.5401 26.3293 43.5401 27.0538ZM20.0256 24.0518C20.0256 25.9801 18.4568 27.5489 16.5284 27.5489C14.6001 27.5489 13.0312 25.9801 13.0312 24.0518C13.0312 22.1235 14.6001 20.5548 16.5284 20.5548C18.4568 20.5548 20.0256 22.1235 20.0256 24.0518ZM17.8425 24.0518C17.8425 23.3273 17.2531 22.7379 16.5284 22.7379C15.8038 22.7379 15.2143 23.3273 15.2143 24.0518C15.2143 24.7763 15.8038 25.3657 16.5284 25.3657C17.2531 25.3657 17.8425 24.7763 17.8425 24.0518ZM11.7276 29.1525H11.4366C10.8338 29.1525 10.345 29.6412 10.345 30.2441C10.345 30.8469 10.8338 31.3356 11.4366 31.3356H11.7276C12.3304 31.3356 12.8191 30.8469 12.8191 30.2441C12.8191 29.6411 12.3304 29.1525 11.7276 29.1525ZM33.2086 17.0398H33.4996C34.1024 17.0398 34.5911 16.5511 34.5911 15.9482C34.5911 15.3454 34.1024 14.8566 33.4996 14.8566H33.2086C32.6057 14.8566 32.117 15.3454 32.117 15.9482C32.117 16.5512 32.6057 17.0398 33.2086 17.0398ZM56.505 46.8923C56.665 46.9748 56.8361 47.0139 57.0045 47.0139C57.3999 47.0139 57.7815 46.7982 57.9755 46.4226L58.1088 46.164C58.3852 45.6282 58.1751 44.9699 57.6391 44.6934C57.1033 44.4169 56.4451 44.6274 56.1687 45.1631L56.0353 45.4216C55.759 45.9574 55.9692 46.6158 56.505 46.8923ZM46.1637 59.3394C46.453 59.8407 46.2997 60.4761 45.8249 60.7927C45.791 60.8178 45.7556 60.841 45.7182 60.8626C41.1126 63.5157 35.8534 64.9179 30.5095 64.9179C24.9986 64.9179 19.8239 63.4488 15.3569 60.8824C15.3223 60.8669 15.2883 60.8496 15.2547 60.8303C15.2201 60.8103 15.1869 60.7886 15.1554 60.7656C6.09731 55.4688 0 45.6374 0 34.4086C0 23.1793 6.09715 13.3481 15.1552 8.05123C15.1869 8.02815 15.2201 8.00647 15.2549 7.98636C15.2886 7.96702 15.3227 7.94956 15.3572 7.93427C19.8242 5.36786 24.9988 3.89893 30.5096 3.89893C36.0205 3.89893 41.1951 5.3677 45.6619 7.93412C45.6967 7.94956 45.7307 7.96687 45.7642 7.98636C45.799 8.00632 45.832 8.02799 45.8637 8.05107C54.9219 13.348 61.0192 23.1793 61.0192 34.4082V34.4084C61.0192 35.0112 60.5305 35.5 59.9277 35.5H35.1335C35.1258 35.5 35.1182 35.5 35.1107 35.4998H32.3962L33.6922 37.7542C33.7191 37.7899 33.7441 37.8276 33.767 37.8674L46.1637 59.3394ZM43.6729 59.4967L29.5632 34.9523C29.3691 34.6145 29.3696 34.1988 29.5648 33.8615C29.7599 33.5242 30.1201 33.3167 30.5096 33.3167H54.3462C54.0479 26.7846 51.0821 20.6502 46.1062 16.3488C45.6501 15.9546 45.6 15.2652 45.9942 14.8091C46.3886 14.3528 47.0775 14.3026 47.5339 14.6971C52.9902 19.4138 56.2317 26.1493 56.5314 33.3165H58.8152C58.4491 23.6949 53.2607 15.288 45.6036 10.4471L33.7668 30.9494C33.4654 31.4715 32.7978 31.6505 32.2756 31.3489C31.7535 31.0475 31.5747 30.3799 31.8759 29.8578L41.4845 13.2148C38.1108 11.4664 34.3385 10.5465 30.5092 10.5465C27.6702 10.5465 24.8923 11.0401 22.2529 12.0134C21.6867 12.2221 21.0597 11.9325 20.8512 11.3669C20.6425 10.8013 20.9321 10.1737 21.4977 9.96505C24.3797 8.90233 27.4118 8.36341 30.5093 8.36341C34.7216 8.36341 38.8713 9.38356 42.5773 11.3223L43.7147 9.35221C39.7695 7.26452 35.2751 6.08158 30.5093 6.08158C25.7436 6.08158 21.249 7.26452 17.3038 9.35237L29.1424 29.858C29.4438 30.3801 29.2648 31.0476 28.7427 31.3491C28.2203 31.6506 27.5529 31.4716 27.2515 30.9495L17.644 14.3081C11.8916 17.9899 8.01394 23.8875 6.94343 30.6425C6.84908 31.2379 6.28942 31.6447 5.69437 31.5497C5.099 31.4554 4.69278 30.8962 4.78712 30.3008C5.96118 22.8926 10.2267 16.4297 16.5514 12.4156L15.415 10.4474C7.75804 15.2883 2.56985 23.6953 2.20386 33.317H25.8858C26.4886 33.317 26.9773 33.8057 26.9773 34.4086C26.9773 35.0114 26.4886 35.5001 25.8858 35.5001H6.67287C6.97446 42.1298 10.0129 48.3271 15.1139 52.6393C15.5742 53.0286 15.6319 53.7173 15.2427 54.1777C14.8537 54.638 14.1649 54.696 13.7044 54.3066C8.11155 49.5785 4.7904 42.7741 4.48772 35.5001H2.20386C2.57 45.1218 7.75804 53.5285 15.4152 58.3694L27.2519 37.8671C27.5537 37.345 28.2211 37.1661 28.7432 37.4676C29.2652 37.769 29.4441 38.4366 29.1428 38.9586L19.5343 55.6015C22.908 57.3502 26.6806 58.2701 30.5098 58.2701C33.3514 58.2701 36.1312 57.7759 38.7718 56.8012C39.3376 56.5925 39.965 56.8818 40.1738 57.4472C40.3825 58.0126 40.0932 58.6404 39.5276 58.8492C36.6442 59.9137 33.6101 60.4534 30.5096 60.4534C26.2974 60.4534 22.1475 59.4331 18.4415 57.494L17.3041 59.4643C21.2493 61.552 25.7439 62.7351 30.5096 62.7351C35.1054 62.7349 39.6332 61.6181 43.6729 59.4967ZM53.894 51.9465C54.0541 52.0293 54.2254 52.0685 54.3939 52.0685C54.7892 52.0685 55.1707 51.8531 55.3648 51.4776L55.4983 51.2191C55.7748 50.6834 55.565 50.0249 55.0292 49.7483C54.4933 49.4713 53.8354 49.6817 53.5584 50.2172L53.4249 50.4757C53.1485 51.0114 53.3584 51.6699 53.894 51.9465ZM49.8979 46.6816C50.0581 46.7644 50.2293 46.8036 50.398 46.8036C50.7933 46.8036 51.1748 46.5882 51.3687 46.2127L51.5022 45.9542C51.7789 45.4185 51.5691 44.7601 51.0335 44.4834C50.4983 44.2067 49.8395 44.4166 49.5627 44.9521L49.4292 45.2106C49.1526 45.7464 49.3625 46.405 49.8979 46.6816ZM70 39.5019C70 44.9624 68.5401 50.3202 65.778 54.9967C63.0971 59.5354 59.2659 63.3253 54.6989 65.9562C54.5318 66.0526 54.1996 66.1587 53.8701 66.0643C53.5916 65.9846 53.3523 65.8055 53.2079 65.5544L38.5446 40.046C38.3505 39.7081 38.3509 39.2925 38.5462 38.9552C38.7412 38.6179 39.1015 38.4104 39.491 38.4104H68.9086C69.5114 38.4104 70 38.8991 70 39.5019ZM67.7958 40.5935H41.3774L52.3183 59.6263C57.9206 56.0528 61.7774 50.3415 62.9664 43.7977C63.0742 43.2047 63.6406 42.8108 64.2358 42.9188C64.829 43.0266 65.2222 43.5948 65.1145 44.188C63.8104 51.3652 59.5673 57.6248 53.4075 61.5208L54.5455 63.5007C62.4506 58.5288 67.4333 49.9147 67.7958 40.5935ZM34.4441 52.9592H34.7351C35.3379 52.9592 35.8266 52.4705 35.8266 51.8676C35.8266 51.2648 35.3379 50.7761 34.7351 50.7761H34.4441C33.8412 50.7761 33.3525 51.2648 33.3525 51.8676C33.3525 52.4705 33.8412 52.9592 34.4441 52.9592ZM31.0914 52.3615C31.0914 54.2898 29.5225 55.8585 27.5942 55.8585C25.6662 55.8585 24.0975 54.2898 24.0975 52.3615C24.0975 50.4331 25.6662 48.8644 27.5942 48.8644C29.5225 48.8643 31.0914 50.4331 31.0914 52.3615ZM28.9083 52.3615C28.9083 51.637 28.3189 51.0475 27.5942 51.0475C26.8699 51.0475 26.2806 51.637 26.2806 52.3615C26.2806 53.086 26.8699 53.6754 27.5942 53.6754C28.3189 53.6752 28.9083 53.086 28.9083 52.3615ZM29.0881 43.5708C29.0881 44.1737 29.5768 44.6624 30.1797 44.6624H30.4705C31.0733 44.6624 31.562 44.1737 31.562 43.5708C31.562 42.968 31.0733 42.4792 30.4705 42.4792H30.1797C29.5768 42.4792 29.0881 42.968 29.0881 43.5708ZM30.3643 23.0061H30.6554C31.2583 23.0061 31.747 22.5174 31.747 21.9145C31.747 21.3117 31.2583 20.823 30.6554 20.823H30.3643C29.7614 20.823 29.2727 21.3117 29.2727 21.9145C29.2727 22.5174 29.7613 23.0061 30.3643 23.0061ZM21.6865 40.8773C21.6865 42.8056 20.1176 44.3744 18.1893 44.3744C16.2612 44.3744 14.6924 42.8056 14.6924 40.8773C14.6924 38.949 16.2612 37.3802 18.1893 37.3802C20.1178 37.3802 21.6865 38.949 21.6865 40.8773ZM19.5034 40.8773C19.5034 40.1528 18.914 39.5634 18.1893 39.5634C17.4648 39.5634 16.8755 40.1528 16.8755 40.8773C16.8755 41.6018 17.4648 42.1912 18.1893 42.1912C18.914 42.1911 19.5034 41.6018 19.5034 40.8773Z" fill="#EB4839"/>
</svg>
