<svg width="19" height="18" viewBox="0 0 19 18" fill="none" xmlns="http://www.w3.org/2000/svg">
<path d="M18.7777 8.42919C18.706 8.24522 18.5984 8.07714 18.4611 7.9346L10.9238 0.440774C10.7832 0.301032 10.6163 0.190182 10.4327 0.114554C10.2491 0.0389258 10.0522 0 9.85345 0C9.452 0 9.067 0.158551 8.78314 0.440774C8.64259 0.580517 8.53109 0.746416 8.45502 0.928998C8.37896 1.11158 8.33981 1.30727 8.33981 1.5049C8.33981 1.90402 8.49928 2.2868 8.78314 2.56902L13.7578 7.49996H2.31607C1.91626 7.49996 1.53283 7.65786 1.25012 7.93894C0.967417 8.22001 0.808594 8.60122 0.808594 8.99872C0.808594 9.39622 0.967417 9.77744 1.25012 10.0585C1.53283 10.3396 1.91626 10.4975 2.31607 10.4975H13.7578L8.78314 15.4284C8.64185 15.5678 8.5297 15.7335 8.45317 15.9162C8.37663 16.0988 8.33723 16.2947 8.33723 16.4925C8.33723 16.6904 8.37663 16.8863 8.45317 17.0689C8.5297 17.2516 8.64185 17.4173 8.78314 17.5567C8.92328 17.6971 9.09001 17.8086 9.27371 17.8847C9.45741 17.9608 9.65444 18 9.85345 18C10.0525 18 10.2495 17.9608 10.4332 17.8847C10.6169 17.8086 10.7836 17.6971 10.9238 17.5567L18.4611 10.0628C18.5984 9.92031 18.706 9.75223 18.7777 9.56825C18.9285 9.20336 18.9285 8.79408 18.7777 8.42919Z" fill="white"/>
</svg>
