<?xml version="1.0" encoding="utf-8"?><svg xmlns="http://www.w3.org/2000/svg" xmlns:xlink="http://www.w3.org/1999/xlink"><symbol viewBox="0 0 512 512" class="asvg-inline--fa afa-exclamation-circle afa-w-16 afa-3x" id="alert-circle" xmlns="http://www.w3.org/2000/svg"><path d="M256 40c118.621 0 216 96.075 216 216 0 119.291-96.61 216-216 216-119.244 0-216-96.562-216-216 0-119.203 96.602-216 216-216m0-32C119.043 8 8 119.083 8 256c0 136.997 111.043 248 248 248s248-111.003 248-248C504 119.083 392.957 8 256 8zm-11.49 120h22.979c6.823 0 12.274 5.682 11.99 12.5l-7 168c-.268 6.428-5.556 11.5-11.99 11.5h-8.979c-6.433 0-11.722-5.073-11.99-11.5l-7-168c-.283-6.818 5.167-12.5 11.99-12.5zM256 340c-15.464 0-28 12.536-28 28s12.536 28 28 28 28-12.536 28-28-12.536-28-28-28z"/></symbol><symbol viewBox="0 0 16 16" id="arrow-right" xmlns="http://www.w3.org/2000/svg"><path d="M11.947 7.746a.668.668 0 00-.14-.22L8.473 4.193a.67.67 0 00-.946.947l2.2 2.193h-5.06a.667.667 0 000 1.333h5.06l-2.2 2.194a.667.667 0 00.217 1.092.668.668 0 00.73-.146l3.333-3.333a.668.668 0 00.14-.22.667.667 0 000-.507z"/></symbol><symbol viewBox="0 0 24 24" id="check-circle" xmlns="http://www.w3.org/2000/svg"><path d="M22 11.08V12a10 10 0 11-5.93-9.14"/><path d="M22 4L12 14.01l-3-3"/></symbol><symbol viewBox="0 0 50 50" id="clock" xmlns="http://www.w3.org/2000/svg"><path d="M25 0C11.215 0 0 11.215 0 25s11.215 25 25 25 25-11.215 25-25S38.785 0 25 0zm0 48.333C12.134 48.333 1.667 37.866 1.667 25 1.667 12.134 12.134 1.667 25 1.667c12.866 0 23.333 10.467 23.333 23.333 0 12.866-10.467 23.333-23.333 23.333z"/><path d="M25.833 21.684v-8.452a.833.833 0 10-1.666 0v8.452a3.329 3.329 0 00-2.382 2.382h-5.952a.833.833 0 100 1.666h5.952a3.33 3.33 0 003.215 2.5 3.337 3.337 0 003.333-3.333 3.33 3.33 0 00-2.5-3.215zM25 26.566c-.92 0-1.667-.748-1.667-1.667 0-.92.748-1.667 1.667-1.667.92 0 1.667.748 1.667 1.667 0 .92-.748 1.667-1.667 1.667zm.001-18.334c.46 0 .834-.372.834-.833v-.833a.833.833 0 10-1.667 0v.833c0 .46.373.833.833.833zm0 33.334a.833.833 0 00-.833.833v.834a.833.833 0 101.667 0v-.834a.833.833 0 00-.834-.833zm18.334-17.5H42.5a.833.833 0 100 1.667h.834a.833.833 0 100-1.667zm-35.836 0h-.834a.833.833 0 100 1.667H7.5a.833.833 0 100-1.667zm29.876-12.72l-.59.589a.832.832 0 101.179 1.178l.589-.589a.833.833 0 10-1.178-1.178zM12.037 36.684l-.59.59a.832.832 0 101.179 1.178l.589-.59a.832.832 0 10-1.178-1.178zm25.927 0a.832.832 0 10-1.179 1.179l.59.589a.831.831 0 001.178 0 .832.832 0 000-1.178l-.59-.59zM12.626 11.346a.832.832 0 10-1.178 1.178l.589.59a.831.831 0 001.178 0 .832.832 0 000-1.179l-.59-.59z"/></symbol><symbol viewBox="0 0 70 70" id="feedbackIcon" xmlns="http://www.w3.org/2000/svg"><path d="M65.34 6.988H42.044v-2.33A4.673 4.673 0 0037.385 0H4.774A4.673 4.673 0 00.115 4.659v25.624c0 12.812 12.23 12.812 16.306 12.812.698 0 1.164-.466 1.164-1.165 0-.699-.466-1.165-1.164-1.165a4.673 4.673 0 01-4.66-4.659v-.465c.35-2.446 2.447-4.193 4.893-4.193h16.073v2.329H22.244c-.698 0-1.164.466-1.164 1.165 0 2.679 1.048 5.241 2.795 7.105-.35 1.164-.466 2.213-.466 3.377 0 4.66 2.795 8.852 6.988 10.716 0 .699-.35 2.096-3.494 2.096-3.261 0-5.823 2.563-5.823 5.824v5.823h2.329V64.06c0-1.864 1.398-3.378 3.261-3.494l5.707 2.795a8.087 8.087 0 001.514.582v5.94h2.33v-5.94c.582-.116 1.048-.232 1.514-.465l5.707-2.796c1.864.117 3.261 1.63 3.261 3.494V70h2.33v-5.824c0-3.26-2.562-5.823-5.824-5.823-3.144 0-3.494-1.398-3.494-2.097 4.426-1.863 7.105-6.29 6.988-11.065v-.815c0-1.63-.349-3.261-1.164-4.659h7.803c2.446 0 4.543 1.747 4.892 4.193.233 2.563-1.63 4.892-4.193 5.125h-.466c-.698 0-1.164.466-1.164 1.165 0 .698.466 1.164 1.164 1.164 4.077 0 16.307 0 16.307-12.812V11.647c.116-2.562-1.98-4.659-4.543-4.659zm-48.686 22.13c-3.611 0-6.756 2.679-7.222 6.29-.116 1.747.35 3.494 1.398 4.892-5.707-1.165-8.386-4.31-8.386-10.017V4.659a2.336 2.336 0 012.33-2.33h32.612a2.336 2.336 0 012.33 2.33v22.13a2.336 2.336 0 01-2.33 2.33H16.654zm6.872 6.988H36.22c4.077 0 7.454 3.029 8.037 6.989H31.562c-4.076 0-7.454-3.028-8.037-6.989zM38.2 54.16a1.119 1.119 0 00-.815 1.048v.699c-.117 1.63.815 3.261 2.33 3.96l-3.03 1.514a4.256 4.256 0 01-3.377 0l-2.912-1.514c1.515-.699 2.446-2.33 2.33-3.96v-.582c0-.466-.35-.932-.815-1.049-3.728-1.398-6.174-4.892-6.174-8.852 0-.582 0-1.164.117-1.63 1.63 1.048 3.61 1.63 5.707 1.63h12.812c0 3.96-2.446 7.455-6.173 8.736zm29.468-15.724c0 5.707-2.68 8.852-8.386 10.017 1.048-1.398 1.514-3.145 1.397-4.892-.466-3.61-3.494-6.29-7.221-6.29h-9.434a10.413 10.413 0 00-7.804-3.494h-1.165v-2.33h2.33a4.673 4.673 0 004.659-4.658V9.318h23.294a2.336 2.336 0 012.33 2.33v26.788z"/><path d="M26.904 12.812h-1.165c-.699 0-1.165-.466-1.165-1.165V8.153c0-1.98-1.514-3.494-3.494-3.494-1.98 0-3.494 1.514-3.494 3.494v3.494c0 .699-.466 1.165-1.165 1.165 0-.7-.466-1.165-1.164-1.165h-4.66c-.698 0-1.164.466-1.164 1.165v12.812c0 .699.466 1.165 1.165 1.165h4.659c.698 0 1.164-.466 1.164-1.165h10.483c1.98 0 3.494-1.514 3.494-3.494v-5.824c0-1.98-1.514-3.494-3.494-3.494zM14.092 24.459h-2.33V13.977h2.33v10.482zm13.976-2.33c0 .7-.465 1.165-1.164 1.165H16.42v-8.153c1.98 0 3.494-1.514 3.494-3.494V8.153c0-.699.466-1.165 1.165-1.165.699 0 1.165.466 1.165 1.165v3.494c0 1.98 1.514 3.494 3.494 3.494h1.165c.699 0 1.165.466 1.165 1.165v5.824zm36.106-10.481h-4.659c-.699 0-1.165.465-1.165 1.164H47.868c-1.98 0-3.495 1.514-3.495 3.494v5.824c0 1.98 1.515 3.494 3.495 3.494h1.164c.7 0 1.165.466 1.165 1.165v3.494c0 1.98 1.514 3.494 3.494 3.494 1.98 0 3.494-1.514 3.494-3.494V26.79c0-.699.466-1.165 1.165-1.165 0 .699.466 1.165 1.165 1.165h4.659c.699 0 1.165-.466 1.165-1.165V12.812c0-.699-.466-1.164-1.165-1.164zM58.35 23.294c-1.98 0-3.494 1.514-3.494 3.494v3.494c0 .699-.466 1.165-1.165 1.165-.699 0-1.164-.466-1.164-1.165V26.79c0-1.98-1.514-3.494-3.495-3.494h-1.164c-.7 0-1.165-.466-1.165-1.165v-5.824c0-.699.466-1.164 1.165-1.164H58.35v8.153zm4.66 1.164h-2.33V13.977h2.33v10.482zm-15.142 5.825h-4.66v2.33h4.66v-2.33zM31.562 5.823V4.66h-2.33v1.164h-1.164v2.33h1.165v1.165h2.329V8.153h1.165v-2.33h-1.165z"/></symbol><symbol viewBox="0 0 14 14" id="food" xmlns="http://www.w3.org/2000/svg"><g clip-path="url(#fclip0)"><path d="M5 9h3.5L7 12 5 9z"/><path d="M7.862 6.404a.583.583 0 10.583-1.01.583.583 0 00-.583 1.01zM6.555 8.668a.583.583 0 10.584-1.01.583.583 0 00-.584 1.01zm-1.18-2.029a.583.583 0 00.797-.213l.292-.505a.583.583 0 10-1.01-.584l-.292.506a.583.583 0 00.214.796zM.666 4.883a1.75 1.75 0 001.79.852l3.904 6.773a.583.583 0 00.505.292.584.584 0 00.511-.291l3.842-6.653a1.715 1.715 0 001.835-.847 1.75 1.75 0 00-.6-2.367l-.293-.169a10.833 10.833 0 00-10.883.055A1.75 1.75 0 00.66 4.88l.005.003zm6.205 6.169L3.54 5.282a7.333 7.333 0 016.618.076L6.87 11.052zm-5-7.521a9.672 9.672 0 019.959.098.584.584 0 01-.584 1.01l-.257-.148a8.458 8.458 0 00-8.525.042.525.525 0 01-.422.053.583.583 0 01-.352-.264.583.583 0 01.175-.794l.005.003z"/></g><defs><clipPath id="fclip0"><path transform="rotate(90 7 7)" d="M0 0h14v14H0z"/></clipPath></defs></symbol><symbol viewBox="0 0 50 50" id="hourglass" xmlns="http://www.w3.org/2000/svg"><path d="M25.001 22.5a.833.833 0 100-1.666.833.833 0 000 1.666z"/><path d="M25.001 22.5a.833.833 0 100-1.666.833.833 0 000 1.666zM27.501 20.833a.833.833 0 100-1.666.833.833 0 000 1.666z"/><path d="M27.501 20.833a.833.833 0 100-1.666.833.833 0 000 1.666zM22.501 20.833a.833.833 0 100-1.666.833.833 0 000 1.666z"/><path d="M22.501 20.833a.833.833 0 100-1.666.833.833 0 000 1.666zM20.001 19.167a.833.833 0 100-1.667.833.833 0 000 1.667z"/><path d="M20.001 19.167a.833.833 0 100-1.667.833.833 0 000 1.667zM30.001 19.167a.833.833 0 100-1.667.833.833 0 000 1.667z"/><path d="M30.001 19.167a.833.833 0 100-1.667.833.833 0 000 1.667zM32.501 17.5a.833.833 0 100-1.666.833.833 0 000 1.666z"/><path d="M32.501 17.5a.833.833 0 100-1.666.833.833 0 000 1.666zM17.501 17.5a.833.833 0 100-1.666.833.833 0 000 1.666z"/><path d="M17.501 17.5a.833.833 0 100-1.666.833.833 0 000 1.666zM25.001 19.167a.833.833 0 100-1.667.833.833 0 000 1.667z"/><path d="M25.001 19.167a.833.833 0 100-1.667.833.833 0 000 1.667zM25.001 29.167a.833.833 0 100-1.667.833.833 0 000 1.667z"/><path d="M25.001 29.167a.833.833 0 100-1.667.833.833 0 000 1.667zM25.001 31.667a.833.833 0 100-1.667.833.833 0 000 1.667z"/><path d="M25.001 31.667a.833.833 0 100-1.667.833.833 0 000 1.667zM25.001 34.167a.833.833 0 100-1.667.833.833 0 000 1.667z"/><path d="M25.001 34.167a.833.833 0 100-1.667.833.833 0 000 1.667zM25.001 36.667a.833.833 0 100-1.667.833.833 0 000 1.667z"/><path d="M25.001 36.667a.833.833 0 100-1.667.833.833 0 000 1.667zM25.001 39.167a.833.833 0 100-1.667.833.833 0 000 1.667z"/><path d="M25.001 39.167a.833.833 0 100-1.667.833.833 0 000 1.667zM25.001 41.667a.833.833 0 100-1.667.833.833 0 000 1.667z"/><path d="M25.001 41.667a.833.833 0 100-1.667.833.833 0 000 1.667z"/><path d="M45.001 48.333h-2.5V45h-4.166v-8.518c0-2.25-1.119-4.34-2.991-5.589L26.504 25l8.84-5.893a6.704 6.704 0 002.99-5.589V5h4.167V1.667h2.5a.833.833 0 100-1.667h-40a.833.833 0 100 1.667h2.5V5h4.167v8.518c0 2.25 1.118 4.34 2.99 5.589L23.499 25l-8.84 5.893a6.704 6.704 0 00-2.99 5.589V45H7.501v3.333h-2.5a.833.833 0 100 1.667h40a.833.833 0 100-1.667zm-35.833-45V1.667h31.667v1.666H9.168zm6.415 14.387a5.042 5.042 0 01-2.248-4.202V5h23.333v8.518a5.04 5.04 0 01-2.248 4.202L25 23.998l-9.418-6.278zm-2.248 18.762a5.04 5.04 0 012.248-4.202l9.418-6.278 9.419 6.278a5.042 5.042 0 012.248 4.202V45H13.335v-8.518zM9.168 46.667h31.667v1.666H9.168v-1.666z"/><path d="M45.001 48.333h-2.5V45h-4.166v-8.518c0-2.25-1.119-4.34-2.991-5.589L26.504 25l8.84-5.893a6.704 6.704 0 002.99-5.589V5h4.167V1.667h2.5a.833.833 0 100-1.667h-40a.833.833 0 100 1.667h2.5V5h4.167v8.518c0 2.25 1.118 4.34 2.99 5.589L23.499 25l-8.84 5.893a6.704 6.704 0 00-2.99 5.589V45H7.501v3.333h-2.5a.833.833 0 100 1.667h40a.833.833 0 100-1.667zm-35.833-45V1.667h31.667v1.666H9.168zm6.415 14.387a5.042 5.042 0 01-2.248-4.202V5h23.333v8.518a5.04 5.04 0 01-2.248 4.202L25 23.998l-9.418-6.278zm-2.248 18.762a5.04 5.04 0 012.248-4.202l9.418-6.278 9.419 6.278a5.042 5.042 0 012.248 4.202V45H13.335v-8.518zM9.168 46.667h31.667v1.666H9.168v-1.666z"/></symbol><symbol viewBox="0 0 14 14" id="hoverPizza" xmlns="http://www.w3.org/2000/svg"><g clip-path="url(#hclip0)"><path d="M5 9h3.5L7 12 5 9z"/><path d="M7.862 6.404a.583.583 0 10.583-1.01.583.583 0 00-.583 1.01zM6.555 8.668a.583.583 0 10.584-1.01.583.583 0 00-.584 1.01zm-1.18-2.029a.583.583 0 00.797-.213l.292-.505a.583.583 0 10-1.01-.584l-.292.506a.583.583 0 00.214.796zM.666 4.883a1.75 1.75 0 001.79.852l3.904 6.773a.583.583 0 00.505.292.584.584 0 00.511-.291l3.842-6.653a1.715 1.715 0 001.835-.847 1.75 1.75 0 00-.6-2.367l-.293-.169a10.833 10.833 0 00-10.883.055A1.75 1.75 0 00.66 4.88l.005.003zm6.205 6.169L3.54 5.282a7.333 7.333 0 016.618.076L6.87 11.052zm-5-7.521a9.672 9.672 0 019.959.098.584.584 0 01-.584 1.01l-.257-.148a8.458 8.458 0 00-8.525.042.525.525 0 01-.422.053.583.583 0 01-.352-.264.583.583 0 01.175-.794l.005.003z"/></g><defs><clipPath id="hclip0"><path transform="rotate(90 7 7)" d="M0 0h14v14H0z"/></clipPath></defs></symbol><symbol class="isvg-inline--fa ifa-instagram ifa-w-14" viewBox="0 0 448 512" id="inst" xmlns="http://www.w3.org/2000/svg"><path d="M224.1 141c-63.6 0-114.9 51.3-114.9 114.9s51.3 114.9 114.9 114.9S339 319.5 339 255.9 287.7 141 224.1 141zm0 189.6c-41.1 0-74.7-33.5-74.7-74.7s33.5-74.7 74.7-74.7 74.7 33.5 74.7 74.7-33.6 74.7-74.7 74.7zm146.4-194.3c0 14.9-12 26.8-26.8 26.8-14.9 0-26.8-12-26.8-26.8s12-26.8 26.8-26.8 26.8 12 26.8 26.8zm76.1 27.2c-1.7-35.9-9.9-67.7-36.2-93.9-26.2-26.2-58-34.4-93.9-36.2-37-2.1-147.9-2.1-184.9 0-35.8 1.7-67.6 9.9-93.9 36.1s-34.4 58-36.2 93.9c-2.1 37-2.1 147.9 0 184.9 1.7 35.9 9.9 67.7 36.2 93.9s58 34.4 93.9 36.2c37 2.1 147.9 2.1 184.9 0 35.9-1.7 67.7-9.9 93.9-36.2 26.2-26.2 34.4-58 36.2-93.9 2.1-37 2.1-147.8 0-184.8zM398.8 388c-7.8 19.6-22.9 34.7-42.6 42.6-29.5 11.7-99.5 9-132.1 9s-102.7 2.6-132.1-9c-19.6-7.8-34.7-22.9-42.6-42.6-11.7-29.5-9-99.5-9-132.1s-2.6-102.7 9-132.1c7.8-19.6 22.9-34.7 42.6-42.6 29.5-11.7 99.5-9 132.1-9s102.7-2.6 132.1 9c19.6 7.8 34.7 22.9 42.6 42.6 11.7 29.5 9 99.5 9 132.1s2.7 102.7-9 132.1z"/></symbol><symbol viewBox="0 0 18 18" id="key" xmlns="http://www.w3.org/2000/svg"><path d="M11.625 5.625L14.25 3m1.5-1.5L14.25 3l1.5-1.5zM8.542 8.707a4.125 4.125 0 11-5.833 5.834A4.125 4.125 0 018.54 8.708h.001zm0 0l3.083-3.082-3.083 3.082zm3.083-3.082l2.25 2.25L16.5 5.25 14.25 3l-2.625 2.625z"/></symbol><symbol viewBox="0 0 70 70" id="likeIcon" xmlns="http://www.w3.org/2000/svg"><path d="M69.884 21.865C68.862 10.62 60.902 2.46 50.94 2.46c-6.637 0-12.714 3.572-16.133 9.296-3.389-5.798-9.217-9.297-15.747-9.297-9.96 0-17.923 8.16-18.943 19.406-.08.497-.412 3.111.595 7.375 1.451 6.15 4.803 11.743 9.692 16.172L34.79 67.54l24.805-22.129c4.888-4.43 8.24-10.023 9.692-16.173 1.007-4.263.676-6.877.596-7.374zm-3.217 6.757c-1.325 5.617-4.396 10.733-8.872 14.788L34.807 63.92 12.213 43.416c-4.484-4.063-7.554-9.179-8.88-14.795-.953-4.035-.561-6.314-.56-6.329l.02-.136C3.668 12.303 10.51 5.15 19.06 5.15c6.31 0 11.864 3.878 14.5 10.117l1.24 2.94 1.24-2.94c2.594-6.144 8.442-10.115 14.9-10.115 8.55 0 15.392 7.152 16.284 17.133.003.022.395 2.302-.558 6.337z"/><path d="M21.538 10.64c-7.423 0-13.462 6.04-13.462 13.463a1.345 1.345 0 102.692 0c0-5.938 4.832-10.77 10.77-10.77a1.345 1.345 0 100-2.692z"/></symbol><symbol viewBox="0 0 70 70" id="missionIcon" xmlns="http://www.w3.org/2000/svg"><g clip-path="url(#lclip0)"><path d="M64.755 13.033c-.303 0-.605.031-.9.093a6.897 6.897 0 00-12.074 0 4.446 4.446 0 00-.9-.093 4.625 4.625 0 00-4.626 4.625 4.56 4.56 0 00.279 1.541c.163.462.6.771 1.09.771h20.387c.49 0 .927-.309 1.09-.77a4.56 4.56 0 00.279-1.542 4.625 4.625 0 00-4.625-4.625zm-16.187 4.625a2.313 2.313 0 013.322-2.067 1.156 1.156 0 001.596-.648 4.593 4.593 0 018.663 0 1.156 1.156 0 001.596.648 2.312 2.312 0 013.322 2.067h-18.5zM12.725 7.252a5.65 5.65 0 00-1.634.24A6.918 6.918 0 00.006 13.033c0 .639.518 1.157 1.156 1.157H17.35c.639 0 1.157-.518 1.157-1.157a5.788 5.788 0 00-5.781-5.78zm-10.26 4.625a4.632 4.632 0 014.478-3.469 4.6 4.6 0 013.133 1.246c.338.313.83.396 1.252.21a3.455 3.455 0 014.668 2.013H2.466zm7.947 8.093a5.781 5.781 0 00-5.78 5.782c0 .638.517 1.156 1.156 1.156h9.25c.638 0 1.156-.518 1.156-1.156a5.781 5.781 0 00-5.781-5.781zm-3.27 4.626a3.469 3.469 0 016.542 0H7.142z"/><path d="M69.87 68L51.908 33.313a1.157 1.157 0 00-1.027-.624h-5.088L35.85 13.902v-4.66l9.615-3.205a1.156 1.156 0 000-2.197L35.058.37a1.156 1.156 0 00-1.522 1.1v12.456L20.091 41.939h-6.296a1.156 1.156 0 00-1.04.641L.12 68.017a1.156 1.156 0 001.041 1.671h17.344v-2.312H3.027l6.344-12.774 3.548 5.318 1.924-1.283-4.285-6.428 3.954-7.958h4.435l-2.633 5.264 2.07 1.034 3.469-6.937.01-.015 6.163-12.835 2.21 3.684 1.982-1.19-2.993-4.991 5.522-11.503 8.431 15.927h-6.173a1.156 1.156 0 00-1.04.64l-3.143 6.297h-2.754v2.313h9.751l3.133 5.22 1.981-1.191-3.468-5.781a1.156 1.156 0 00-.991-.56h-5.067L37.72 35h12.457l4.04 7.801-.116-.061-4.24 7.9 2.038 1.094 3.533-6.59 11.511 22.23h-9.126v2.313h11.027A1.156 1.156 0 0069.871 68zM35.85 3.074l5.594 1.865-5.594 1.865v-3.73z"/><path d="M55.366 67.984l-8.093-15.031a1.156 1.156 0 00-1.019-.608h-9.25c-.406 0-.782.213-.99.56l-3.133 5.22h-6.283c-.438 0-.839.248-1.035.64l-4.625 9.25a1.156 1.156 0 001.035 1.673h32.375a1.156 1.156 0 001.018-1.704zm-31.522-.608l3.469-6.938h6.223c.405 0 .781-.213.99-.56l3.133-5.22h7.901l1.869 3.468h-3.487c-.364 0-.707.171-.925.462l-3.47 4.625 1.85 1.388 3.123-4.163h4.162l3.736 6.938H23.844z"/></g><defs><clipPath id="lclip0"><path d="M0 0h70v70H0z"/></clipPath></defs></symbol><symbol viewBox="0 0 50 50" id="pizza3" xmlns="http://www.w3.org/2000/svg"><g clip-path="url(#mclip0)"><path d="M26.297 44.166h-2.594a.833.833 0 100 1.667h2.594a.833.833 0 100-1.666z"/><path d="M26.297 44.166h-2.594a.833.833 0 100 1.667h2.594a.833.833 0 100-1.666zM38.404 44.166H35.81a.833.833 0 100 1.667h2.594a.833.833 0 100-1.666z"/><path d="M38.404 44.166H35.81a.833.833 0 100 1.667h2.594a.833.833 0 100-1.666zM32.351 44.166h-2.594a.833.833 0 000 1.667h2.594a.833.833 0 100-1.666z"/><path d="M32.351 44.166h-2.594a.833.833 0 000 1.667h2.594a.833.833 0 100-1.666zM44.459 44.166h-2.595a.833.833 0 000 1.667h2.595a.833.833 0 000-1.666z"/><path d="M44.459 44.166h-2.595a.833.833 0 000 1.667h2.595a.833.833 0 000-1.666zM14.19 44.166h-2.595a.833.833 0 100 1.667h2.594a.833.833 0 100-1.666z"/><path d="M14.19 44.166h-2.595a.833.833 0 100 1.667h2.594a.833.833 0 100-1.666zM20.244 44.166h-2.595a.833.833 0 000 1.667h2.595a.833.833 0 000-1.666z"/><path d="M20.244 44.166h-2.595a.833.833 0 000 1.667h2.595a.833.833 0 000-1.666zM8.136 44.166H5.542a.833.833 0 000 1.667h2.594a.833.833 0 000-1.666z"/><path d="M8.136 44.166H5.542a.833.833 0 000 1.667h2.594a.833.833 0 000-1.666z"/><path d="M47.5 0h-45A2.5 2.5 0 000 2.5v6.667c0 .46.373.833.834.833h1.583l4.202 15.764-6.547 14.73v.01a.825.825 0 00-.062.294c0 .012-.007.023-.007.035v7.5c0 .92.746 1.667 1.666 1.667h46.664c.92 0 1.667-.746 1.667-1.667v-7.5c0-.012-.007-.023-.008-.035a.824.824 0 00-.053-.267c-.004-.01-.005-.02-.008-.028v-.008l-6.55-14.73L47.583 10h1.584c.46 0 .833-.373.833-.833V2.5A2.5 2.5 0 0047.5 0zM8.042 26.667h6.2c-.292.094-.584.187-.862.289-.018.007-.035.009-.052.017-3.795 1.396-6.262 3.479-6.6 5.865a.814.814 0 00-.026.166c0 .007.005.012.005.019-.011.126-.04.25-.04.377v3.5a4.721 4.721 0 001.28 3.1H2.113l5.929-13.333zm33.234 5.397l-12.305-.616 7.369-2.833c2.497.947 4.217 2.174 4.936 3.45zM36.132 40c.131-.045.268-.083.397-.133.027-.006.052-.018.078-.026a13.97 13.97 0 005.06-2.96v.015c0 1.315-1.1 2.392-2.102 3.104h-3.433zm-25.697 0c-1.002-.712-2.102-1.79-2.102-3.104v-.016a13.97 13.97 0 005.06 2.96c.026.01.051.02.078.027.13.046.266.088.397.133h-3.433zm26.006-1.86l-8.233-5.062 13.417.672c-.247 1.592-2.112 3.2-5.184 4.39zm-10.608 1.843v-6.409l8.539 5.25a34.643 34.643 0 01-8.538 1.159zM8.38 33.75l13.417-.672-8.233 5.063c-3.076-1.19-4.94-2.8-5.184-4.39zm15.787-.176v6.409a34.637 34.637 0 01-8.538-1.157l8.538-5.252zm0-2.704l-7.946-3.058a35.292 35.292 0 017.947-1.003v4.061zM13.66 28.612l7.37 2.833-12.306.616c.72-1.272 2.443-2.499 4.936-3.45zm12.174 2.258v-4.06c2.677.03 5.343.366 7.946 1l-7.947 3.06zM1.666 48.333v-2.5h.416a.833.833 0 100-1.666h-.416v-2.5h46.666v2.5h-.416a.833.833 0 100 1.666h.416v2.5H1.667zM42.053 40a4.719 4.719 0 001.28-3.104v-3.5c0-.128-.029-.25-.04-.377 0-.007.004-.012.005-.019a.821.821 0 00-.026-.166c-.338-2.387-2.805-4.47-6.6-5.865-.017-.008-.035-.012-.054-.018-.277-.102-.569-.194-.86-.289h6.2l5.926 13.334-5.83.004zm-.193-15H8.14l-4-15h41.718L41.86 25zM30.833 8.333H19.167V6.667c0-.46.373-.834.833-.834h10c.46 0 .833.374.833.834v1.666zm17.5 0H32.5V6.667a2.5 2.5 0 00-2.5-2.5H20a2.5 2.5 0 00-2.5 2.5v1.666H1.667V2.5c0-.46.373-.833.833-.833h45c.46 0 .833.373.833.833v5.833z"/><path d="M47.5 0h-45A2.5 2.5 0 000 2.5v6.667c0 .46.373.833.834.833h1.583l4.202 15.764-6.547 14.73v.01a.825.825 0 00-.062.294c0 .012-.007.023-.007.035v7.5c0 .92.746 1.667 1.666 1.667h46.664c.92 0 1.667-.746 1.667-1.667v-7.5c0-.012-.007-.023-.008-.035a.824.824 0 00-.053-.267c-.004-.01-.005-.02-.008-.028v-.008l-6.55-14.73L47.583 10h1.584c.46 0 .833-.373.833-.833V2.5A2.5 2.5 0 0047.5 0zM8.042 26.667h6.2c-.292.094-.584.187-.862.289-.018.007-.035.009-.052.017-3.795 1.396-6.262 3.479-6.6 5.865a.814.814 0 00-.026.166c0 .007.005.012.005.019-.011.126-.04.25-.04.377v3.5a4.721 4.721 0 001.28 3.1H2.113l5.929-13.333zm33.234 5.397l-12.305-.616 7.369-2.833c2.497.947 4.217 2.174 4.936 3.45zM36.132 40c.131-.045.268-.083.397-.133.027-.006.052-.018.078-.026a13.97 13.97 0 005.06-2.96v.015c0 1.315-1.1 2.392-2.102 3.104h-3.433zm-25.697 0c-1.002-.712-2.102-1.79-2.102-3.104v-.016a13.97 13.97 0 005.06 2.96c.026.01.051.02.078.027.13.046.266.088.397.133h-3.433zm26.006-1.86l-8.233-5.062 13.417.672c-.247 1.592-2.112 3.2-5.184 4.39zm-10.608 1.843v-6.409l8.539 5.25a34.643 34.643 0 01-8.538 1.159zM8.38 33.75l13.417-.672-8.233 5.063c-3.076-1.19-4.94-2.8-5.184-4.39zm15.787-.176v6.409a34.637 34.637 0 01-8.538-1.157l8.538-5.252zm0-2.704l-7.946-3.058a35.292 35.292 0 017.947-1.003v4.061zM13.66 28.612l7.37 2.833-12.306.616c.72-1.272 2.443-2.499 4.936-3.45zm12.174 2.258v-4.06c2.677.03 5.343.366 7.946 1l-7.947 3.06zM1.666 48.333v-2.5h.416a.833.833 0 100-1.666h-.416v-2.5h46.666v2.5h-.416a.833.833 0 100 1.666h.416v2.5H1.667zM42.053 40a4.719 4.719 0 001.28-3.104v-3.5c0-.128-.029-.25-.04-.377 0-.007.004-.012.005-.019a.821.821 0 00-.026-.166c-.338-2.387-2.805-4.47-6.6-5.865-.017-.008-.035-.012-.054-.018-.277-.102-.569-.194-.86-.289h6.2l5.926 13.334-5.83.004zm-.193-15H8.14l-4-15h41.718L41.86 25zM30.833 8.333H19.167V6.667c0-.46.373-.834.833-.834h10c.46 0 .833.374.833.834v1.666zm17.5 0H32.5V6.667a2.5 2.5 0 00-2.5-2.5H20a2.5 2.5 0 00-2.5 2.5v1.666H1.667V2.5c0-.46.373-.833.833-.833h45c.46 0 .833.373.833.833v5.833z"/></g><defs><clipPath id="mclip0"><path d="M0 0h50v50H0z"/></clipPath></defs></symbol><symbol viewBox="0 0 70 70" id="pizzaIcon" xmlns="http://www.w3.org/2000/svg"><path d="M17.254 48.004c0 .602-.489 1.091-1.092 1.091h-.29a1.092 1.092 0 010-2.183h.29c.603 0 1.092.489 1.092 1.092zm-6.705-10.042h-.291a1.092 1.092 0 000 2.183h.29a1.092 1.092 0 000-2.183zm10.55-8.81h-.292a1.092 1.092 0 000 2.184h.291a1.092 1.092 0 000-2.183zm6.712-14.295h-.291a1.092 1.092 0 000 2.183h.29a1.092 1.092 0 000-2.183zm13.546 12.197a3.501 3.501 0 013.497-3.497 3.5 3.5 0 013.497 3.497 3.5 3.5 0 01-3.497 3.497 3.501 3.501 0 01-3.497-3.497zm2.183 0c0 .724.59 1.314 1.314 1.314.725 0 1.314-.59 1.314-1.314a1.315 1.315 0 00-2.628 0zm-23.514-3.002a3.501 3.501 0 01-3.498 3.497 3.501 3.501 0 01-3.497-3.497 3.501 3.501 0 013.497-3.497 3.501 3.501 0 013.498 3.497zm-2.183 0a1.315 1.315 0 00-2.628 0c0 .724.589 1.314 1.313 1.314.725 0 1.315-.59 1.315-1.314zm-6.115 5.1h-.291a1.092 1.092 0 000 2.184h.29a1.092 1.092 0 000-2.183zm21.48-12.112h.292a1.092 1.092 0 000-2.183h-.291a1.092 1.092 0 000 2.183zm23.297 29.852a1.092 1.092 0 001.47-.47l.134-.258a1.091 1.091 0 10-1.94-1l-.134.258a1.092 1.092 0 00.47 1.47zM46.164 59.34a1.092 1.092 0 01-.34 1.454 1.12 1.12 0 01-.106.07 30.506 30.506 0 01-15.209 4.055c-5.51 0-10.685-1.47-15.152-4.036a1.143 1.143 0 01-.202-.116C6.097 55.469 0 45.637 0 34.409c0-11.23 6.097-21.06 15.155-26.358a1.129 1.129 0 01.202-.117A30.326 30.326 0 0130.51 3.9a30.33 30.33 0 0115.152 4.035 1.048 1.048 0 01.202.117c9.058 5.297 15.155 15.128 15.155 26.357 0 .603-.488 1.092-1.091 1.092H32.396l1.296 2.254c.027.036.052.074.075.113L46.164 59.34zm-2.491.158l-14.11-24.545a1.092 1.092 0 01.947-1.635h23.836a23.858 23.858 0 00-8.24-16.968 1.092 1.092 0 011.428-1.652 26.038 26.038 0 018.997 18.62h2.284c-.366-9.622-5.554-18.029-13.211-22.87L33.767 30.95a1.091 1.091 0 11-1.891-1.091l9.608-16.643a23.878 23.878 0 00-10.975-2.668c-2.839 0-5.617.493-8.256 1.466a1.091 1.091 0 11-.755-2.048 25.963 25.963 0 019.011-1.602c4.213 0 8.362 1.02 12.068 2.96l1.138-1.97a28.153 28.153 0 00-13.206-3.271 28.16 28.16 0 00-13.205 3.27l11.838 20.506a1.092 1.092 0 01-1.89 1.091l-9.608-16.64c-5.752 3.68-9.63 9.579-10.7 16.334a1.091 1.091 0 11-2.157-.342c1.174-7.408 5.44-13.871 11.764-17.885l-1.136-1.969C7.758 15.288 2.57 23.695 2.204 33.317h23.682a1.092 1.092 0 010 2.183H6.673a23.828 23.828 0 008.44 17.14 1.092 1.092 0 01-1.409 1.667A26.006 26.006 0 014.488 35.5H2.204c.366 9.622 5.554 18.029 13.211 22.87l11.837-20.503a1.092 1.092 0 011.89 1.092L19.535 55.6a23.876 23.876 0 0010.976 2.67 23.78 23.78 0 008.262-1.47 1.092 1.092 0 11.756 2.048 25.953 25.953 0 01-9.018 1.604c-4.213 0-8.363-1.02-12.069-2.959l-1.137 1.97a28.154 28.154 0 0013.206 3.271c4.595 0 9.123-1.117 13.163-3.238zm10.221-7.55a1.092 1.092 0 001.47-.469l.134-.259a1.092 1.092 0 00-1.94-1.002l-.133.259a1.092 1.092 0 00.469 1.47zm-3.996-5.265a1.091 1.091 0 001.47-.469l.134-.259a1.092 1.092 0 10-1.94-1.002l-.133.259a1.092 1.092 0 00.469 1.47zM70 39.502c0 5.46-1.46 10.818-4.222 15.495a30.678 30.678 0 01-11.08 10.96 1.128 1.128 0 01-.828.107 1.11 1.11 0 01-.662-.51L38.545 40.046a1.092 1.092 0 01.946-1.636h29.418c.602 0 1.091.49 1.091 1.092zm-2.204 1.091H41.377l10.941 19.033a23.8 23.8 0 0010.648-15.828 1.09 1.09 0 112.149.39 25.982 25.982 0 01-11.707 17.333l1.137 1.98c7.906-4.972 12.888-13.586 13.25-22.907zM34.444 52.96h.291a1.092 1.092 0 000-2.183h-.29a1.092 1.092 0 100 2.183zm-3.353-.598a3.501 3.501 0 01-3.497 3.498 3.5 3.5 0 01-3.497-3.498 3.5 3.5 0 013.497-3.497 3.501 3.501 0 013.497 3.498zm-2.183 0a1.314 1.314 0 10-1.314 1.314c.725 0 1.314-.589 1.314-1.313zm.18-8.79c0 .603.489 1.091 1.092 1.091h.29a1.092 1.092 0 000-2.183h-.29c-.603 0-1.092.489-1.092 1.092zm1.276-20.565h.291a1.092 1.092 0 100-2.183h-.29a1.092 1.092 0 100 2.183zm-8.678 17.871a3.501 3.501 0 01-3.497 3.497 3.501 3.501 0 01-3.497-3.497 3.501 3.501 0 013.497-3.497 3.501 3.501 0 013.497 3.497zm-2.183 0c0-.724-.589-1.314-1.314-1.314-.724 0-1.314.59-1.314 1.314 0 .725.59 1.314 1.314 1.314.725 0 1.314-.59 1.314-1.314z"/></symbol><symbol viewBox="0 0 70 70" id="pizzaIcon2" xmlns="http://www.w3.org/2000/svg"><g clip-path="url(#oclip0)"><path d="M69.593.394a1.366 1.366 0 00-1.42-.314L11.386 20.327a7.474 7.474 0 00-6.77-.538C.806 21.367-1.009 25.75.57 29.56a73.311 73.311 0 0015.97 23.9 73.308 73.308 0 0023.9 15.97c.933.387 1.9.57 2.852.57 2.936 0 5.728-1.74 6.92-4.617a7.456 7.456 0 00-.041-5.808L69.926 1.81c.17-.497.04-1.047-.333-1.416zm-49.608 19.77l6.018-2.145a3.477 3.477 0 01.913 2.837 3.464 3.464 0 01-1.334 2.31 3.462 3.462 0 01-2.576.69 3.462 3.462 0 01-2.31-1.333 3.458 3.458 0 01-.711-2.358zm27.7 44.173a4.75 4.75 0 01-6.2 2.567c-17.505-7.25-31.139-20.885-38.39-38.39a4.713 4.713 0 010-3.631 4.713 4.713 0 012.568-2.568 4.713 4.713 0 013.63 0 4.713 4.713 0 012.568 2.568 61.14 61.14 0 0013.32 19.935 61.146 61.146 0 0019.936 13.32 4.75 4.75 0 012.567 6.199zm12.146-41.46a3.462 3.462 0 01-2.68-1.36 3.462 3.462 0 01-.691-2.576 3.489 3.489 0 013.91-3 3.47 3.47 0 011.61.652l-2.15 6.284zm3.058-8.942a6.217 6.217 0 00-2.163-.705 6.225 6.225 0 00-6.977 5.354 6.179 6.179 0 001.232 4.598 6.173 6.173 0 003.941 2.352l-2.717 7.946-3.125-2.399a1.368 1.368 0 00-1.665 2.17l3.856 2.959-7.067 20.665a7.448 7.448 0 00-2.04-1.263C31.674 49.61 20.39 38.325 14.388 23.836a7.468 7.468 0 00-.767-1.402l3.661-1.306a6.18 6.18 0 001.245 3.06 6.178 6.178 0 004.122 2.379 6.173 6.173 0 004.598-1.232 6.179 6.179 0 002.38-4.122 6.208 6.208 0 00-.925-4.157l16.995-6.06.644 1.556a1.368 1.368 0 102.526-1.047l-.591-1.428 18.145-6.47-3.532 10.328z"/><path d="M14.765 36.679a1.366 1.366 0 00-1.914-.408 1.369 1.369 0 00-.381 1.892 1.366 1.366 0 002.295-1.484zm-2.079-3.397a64.714 64.714 0 01-3.56-7.266 1.367 1.367 0 10-2.525 1.046 67.443 67.443 0 003.71 7.574 1.367 1.367 0 102.375-1.354zm30.098-15.784a6.268 6.268 0 00-.818-.054c-3.106 0-5.754 2.325-6.16 5.408a6.226 6.226 0 006.172 7.032c3.106 0 5.754-2.325 6.16-5.408a6.226 6.226 0 00-5.354-6.978zm2.643 6.62a3.491 3.491 0 01-3.91 3.001 3.489 3.489 0 01-3-3.91 3.491 3.491 0 013.91-3 3.489 3.489 0 013 3.91zm-2.999 10.386a6.252 6.252 0 00-.818-.054c-3.106 0-5.754 2.325-6.16 5.408a6.178 6.178 0 001.232 4.598 6.18 6.18 0 004.122 2.38c.271.036.546.054.818.054 3.106 0 5.754-2.325 6.16-5.408a6.226 6.226 0 00-5.354-6.978zm2.643 6.62a3.492 3.492 0 01-3.91 3.001 3.463 3.463 0 01-2.31-1.334 3.461 3.461 0 01-.69-2.576 3.491 3.491 0 013.91-3 3.489 3.489 0 013 3.91zM33.411 28.84l-4.202-.553a1.367 1.367 0 10-.357 2.71l4.202.554a1.367 1.367 0 00.357-2.71zM31.28 38.93l-.372-2.82a1.367 1.367 0 10-2.71.357l.37 2.82a1.367 1.367 0 102.711-.358z"/></g><defs><clipPath id="oclip0"><path d="M0 0h70v70H0z"/></clipPath></defs></symbol><symbol viewBox="0 0 18 18" id="shopping-bag" xmlns="http://www.w3.org/2000/svg"><path d="M4.5 1.5l-2.25 3V15a1.5 1.5 0 001.5 1.5h10.5a1.5 1.5 0 001.5-1.5V4.5l-2.25-3h-9zm-2.25 3h13.5M12 7.5a3 3 0 01-6 0"/></symbol><symbol class="qsvg-inline--fa qfa-vk qfa-w-18" viewBox="0 0 576 512" id="vk" xmlns="http://www.w3.org/2000/svg"><path d="M545 117.7c3.7-12.5 0-21.7-17.8-21.7h-58.9c-15 0-21.9 7.9-25.6 16.7 0 0-30 73.1-72.4 120.5-13.7 13.7-20 18.1-27.5 18.1-3.7 0-9.4-4.4-9.4-16.9V117.7c0-15-4.2-21.7-16.6-21.7h-92.6c-9.4 0-15 7-15 13.5 0 14.2 21.2 17.5 23.4 57.5v86.8c0 19-3.4 22.5-10.9 22.5-20 0-68.6-73.4-97.4-157.4-5.8-16.3-11.5-22.9-26.6-22.9H38.8c-16.8 0-20.2 7.9-20.2 16.7 0 15.6 20 93.1 93.1 195.5C160.4 378.1 229 416 291.4 416c37.5 0 42.1-8.4 42.1-22.9 0-66.8-3.4-73.1 15.4-73.1 8.7 0 23.7 4.4 58.7 38.1 40 40 46.6 57.9 69 57.9h58.9c16.8 0 25.3-8.4 20.4-25-11.2-34.9-86.9-106.7-90.3-111.5-8.7-11.2-6.2-16.2 0-26.2.1-.1 72-101.3 79.4-135.6z"/></symbol></svg>