<svg width="27" height="33" viewBox="0 0 27 33" fill="none" xmlns="http://www.w3.org/2000/svg">
<path d="M16.5 1H4.1C3.27783 1 2.48933 1.32661 1.90797 1.90797C1.32661 2.48933 1 3.27783 1 4.1V28.9C1 29.7222 1.32661 30.5107 1.90797 31.092C2.48933 31.6734 3.27783 32 4.1 32H22.7C23.5222 32 24.3107 31.6734 24.892 31.092C25.4734 30.5107 25.8 29.7222 25.8 28.9V10.3L16.5 1Z" stroke="black" stroke-width="2" stroke-linecap="round" stroke-linejoin="round"/>
<path d="M16.5 1V10.3H25.8" stroke="black" stroke-width="2" stroke-linecap="round" stroke-linejoin="round"/>
<path d="M19.6 18.05H7.20001" stroke="black" stroke-width="2" stroke-linecap="round" stroke-linejoin="round"/>
<path d="M19.6 24.25H7.20001" stroke="black" stroke-width="2" stroke-linecap="round" stroke-linejoin="round"/>
<path d="M10.3 11.85H8.75001H7.20001" stroke="black" stroke-width="2" stroke-linecap="round" stroke-linejoin="round"/>
</svg>
