<svg width="56" height="56" viewBox="0 0 56 56" fill="none" xmlns="http://www.w3.org/2000/svg">
<path d="M28 35.091C31.9162 35.091 35.0909 31.9163 35.0909 28.0001C35.0909 24.0839 31.9162 20.9092 28 20.9092C24.0838 20.9092 20.9091 24.0839 20.9091 28.0001C20.9091 31.9163 24.0838 35.091 28 35.091Z" stroke="black" stroke-width="3" stroke-linecap="round" stroke-linejoin="round"/>
<path d="M45.4909 35.0909C45.1763 35.8038 45.0824 36.5946 45.2214 37.3614C45.3605 38.1281 45.726 38.8357 46.2709 39.3927L46.4127 39.5345C46.8523 39.9736 47.2009 40.4949 47.4388 41.0688C47.6767 41.6427 47.7992 42.2579 47.7992 42.8791C47.7992 43.5003 47.6767 44.1155 47.4388 44.6894C47.2009 45.2632 46.8523 45.7846 46.4127 46.2236C45.9737 46.6632 45.4523 47.0118 44.8784 47.2497C44.3046 47.4876 43.6894 47.6101 43.0682 47.6101C42.4469 47.6101 41.8318 47.4876 41.2579 47.2497C40.684 47.0118 40.1627 46.6632 39.7236 46.2236L39.5818 46.0818C39.0248 45.5369 38.3172 45.1714 37.5505 45.0324C36.7837 44.8933 35.9929 44.9872 35.28 45.3018C34.5809 45.6014 33.9847 46.0989 33.5647 46.7331C33.1448 47.3672 32.9194 48.1103 32.9164 48.8709V49.2727C32.9164 50.5265 32.4183 51.7289 31.5318 52.6154C30.6452 53.5019 29.4428 54 28.1891 54C26.9353 54 25.7329 53.5019 24.8464 52.6154C23.9599 51.7289 23.4618 50.5265 23.4618 49.2727V49.06C23.4435 48.2776 23.1903 47.5189 22.735 46.8824C22.2798 46.2459 21.6436 45.761 20.9091 45.4909C20.1962 45.1763 19.4054 45.0824 18.6386 45.2214C17.8719 45.3605 17.1643 45.726 16.6073 46.2709L16.4655 46.4127C16.0264 46.8523 15.5051 47.2009 14.9312 47.4388C14.3573 47.6767 13.7421 47.7992 13.1209 47.7992C12.4997 47.7992 11.8845 47.6767 11.3106 47.4388C10.7368 47.2009 10.2154 46.8523 9.77636 46.4127C9.33684 45.9737 8.98816 45.4523 8.75026 44.8784C8.51237 44.3046 8.38992 43.6894 8.38992 43.0682C8.38992 42.4469 8.51237 41.8318 8.75026 41.2579C8.98816 40.684 9.33684 40.1627 9.77636 39.7236L9.91818 39.5818C10.4631 39.0248 10.8286 38.3172 10.9676 37.5505C11.1067 36.7837 11.0128 35.9929 10.6982 35.28C10.3986 34.5809 9.90106 33.9847 9.26692 33.5647C8.63278 33.1448 7.88968 32.9194 7.12909 32.9164H6.72727C5.47352 32.9164 4.27112 32.4183 3.38459 31.5318C2.49805 30.6452 2 29.4428 2 28.1891C2 26.9353 2.49805 25.7329 3.38459 24.8464C4.27112 23.9599 5.47352 23.4618 6.72727 23.4618H6.94C7.72235 23.4435 8.4811 23.1903 9.11762 22.735C9.75413 22.2798 10.239 21.6436 10.5091 20.9091C10.8237 20.1962 10.9176 19.4054 10.7786 18.6386C10.6395 17.8719 10.274 17.1643 9.72909 16.6073L9.58727 16.4655C9.14775 16.0264 8.79907 15.5051 8.56117 14.9312C8.32328 14.3573 8.20083 13.7421 8.20083 13.1209C8.20083 12.4997 8.32328 11.8845 8.56117 11.3106C8.79907 10.7368 9.14775 10.2154 9.58727 9.77636C10.0263 9.33684 10.5477 8.98816 11.1216 8.75026C11.6954 8.51237 12.3106 8.38992 12.9318 8.38992C13.5531 8.38992 14.1682 8.51237 14.7421 8.75026C15.316 8.98816 15.8373 9.33684 16.2764 9.77636L16.4182 9.91818C16.9752 10.4631 17.6828 10.8286 18.4495 10.9676C19.2163 11.1067 20.0071 11.0128 20.72 10.6982H20.9091C21.6082 10.3986 22.2044 9.90106 22.6244 9.26692C23.0443 8.63278 23.2697 7.88968 23.2727 7.12909V6.72727C23.2727 5.47352 23.7708 4.27112 24.6573 3.38459C25.5438 2.49805 26.7462 2 28 2C29.2537 2 30.4561 2.49805 31.3427 3.38459C32.2292 4.27112 32.7273 5.47352 32.7273 6.72727V6.94C32.7303 7.70059 32.9557 8.44369 33.3756 9.07783C33.7956 9.71197 34.3918 10.2095 35.0909 10.5091C35.8038 10.8237 36.5946 10.9176 37.3614 10.7786C38.1281 10.6395 38.8357 10.274 39.3927 9.72909L39.5345 9.58727C39.9736 9.14775 40.4949 8.79907 41.0688 8.56117C41.6427 8.32328 42.2579 8.20083 42.8791 8.20083C43.5003 8.20083 44.1155 8.32328 44.6894 8.56117C45.2632 8.79907 45.7846 9.14775 46.2236 9.58727C46.6632 10.0263 47.0118 10.5477 47.2497 11.1216C47.4876 11.6954 47.6101 12.3106 47.6101 12.9318C47.6101 13.5531 47.4876 14.1682 47.2497 14.7421C47.0118 15.316 46.6632 15.8373 46.2236 16.2764L46.0818 16.4182C45.5369 16.9752 45.1714 17.6828 45.0324 18.4495C44.8933 19.2163 44.9872 20.0071 45.3018 20.72V20.9091C45.6014 21.6082 46.0989 22.2044 46.7331 22.6244C47.3672 23.0443 48.1103 23.2697 48.8709 23.2727H49.2727C50.5265 23.2727 51.7289 23.7708 52.6154 24.6573C53.5019 25.5438 54 26.7462 54 28C54 29.2537 53.5019 30.4561 52.6154 31.3427C51.7289 32.2292 50.5265 32.7273 49.2727 32.7273H49.06C48.2994 32.7303 47.5563 32.9557 46.9222 33.3756C46.288 33.7956 45.7905 34.3918 45.4909 35.0909V35.0909Z" stroke="black" stroke-width="3" stroke-linecap="round" stroke-linejoin="round"/>
</svg>
