<svg width="96" height="96" viewBox="0 0 96 96" fill="none" xmlns="http://www.w3.org/2000/svg">
<g filter="url(#filter0_d)">
<circle cx="48" cy="48" r="32.6204" fill="white"/>
</g>
<path d="M89 48C89 70.6437 70.6437 89 48 89C25.3563 89 7 70.6437 7 48C7 25.3563 25.3563 7 48 7C70.6437 7 89 25.3563 89 48ZM8.37958 48C8.37958 69.8818 26.1182 87.6204 48 87.6204C69.8818 87.6204 87.6204 69.8818 87.6204 48C87.6204 26.1182 69.8818 8.37958 48 8.37958C26.1182 8.37958 8.37958 26.1182 8.37958 48Z" fill="white"/>
<path d="M89 48C89 54.7425 87.3372 61.3809 84.1588 67.3273C80.9804 73.2736 76.3846 78.3443 70.7784 82.0903C65.1722 85.8362 58.7287 88.1417 52.0187 88.8026C45.3087 89.4635 38.5392 88.4593 32.31 85.8791C26.0807 83.2988 20.584 79.2221 16.3066 74.0101C12.0292 68.7981 9.1032 62.6116 7.7878 55.9987C6.47241 49.3858 6.8082 42.5505 8.76545 36.0983C10.7227 29.6462 14.241 23.7763 19.0086 19.0086L19.9841 19.9841C15.3769 24.5914 11.977 30.2637 10.0856 36.4988C8.19424 42.7339 7.86974 49.3391 9.14087 55.7296C10.412 62.12 13.2395 68.0983 17.373 73.1349C21.5065 78.1716 26.8183 82.1111 32.8379 84.6045C38.8576 87.0979 45.3992 88.0683 51.8835 87.4296C58.3677 86.791 64.5944 84.5631 70.0119 80.9432C75.4295 77.3233 79.8707 72.4232 82.9421 66.6769C86.0135 60.9307 87.6204 54.5156 87.6204 48H89Z" fill="#9F212E"/>
<path d="M54.8832 48L44.5584 53.961L44.5584 42.039L54.8832 48Z" fill="#9F212E"/>
<defs>
<filter id="filter0_d" x="0.379562" y="0.379578" width="95.2409" height="95.2409" filterUnits="userSpaceOnUse" color-interpolation-filters="sRGB">
<feFlood flood-opacity="0" result="BackgroundImageFix"/>
<feColorMatrix in="SourceAlpha" type="matrix" values="0 0 0 0 0 0 0 0 0 0 0 0 0 0 0 0 0 0 127 0"/>
<feOffset/>
<feGaussianBlur stdDeviation="7.5"/>
<feColorMatrix type="matrix" values="0 0 0 0 0 0 0 0 0 0 0 0 0 0 0 0 0 0 0.2 0"/>
<feBlend mode="normal" in2="BackgroundImageFix" result="effect1_dropShadow"/>
<feBlend mode="normal" in="SourceGraphic" in2="effect1_dropShadow" result="shape"/>
</filter>
</defs>
</svg>
