<svg width="14" height="14" viewBox="0 0 14 14" fill="none" xmlns="http://www.w3.org/2000/svg">
<g clip-path="url(#clip0)">
<path d="M6.40445 6.06555C6.46214 5.96563 6.4889 5.85085 6.48135 5.73573C6.47381 5.6206 6.43229 5.5103 6.36206 5.41877C6.29183 5.32724 6.19603 5.25859 6.08678 5.2215C5.97753 5.18442 5.85973 5.18056 5.74829 5.21042C5.63685 5.24028 5.53677 5.30252 5.4607 5.38926C5.38463 5.476 5.33599 5.58335 5.32093 5.69774C5.30587 5.81212 5.32507 5.92841 5.37609 6.03188C5.42712 6.13536 5.50769 6.22137 5.6076 6.27906C5.74159 6.35642 5.90081 6.37738 6.05025 6.33734C6.19969 6.29729 6.3271 6.19953 6.40445 6.06555ZM8.66766 7.37221C8.72535 7.2723 8.75211 7.15752 8.74457 7.04239C8.73702 6.92727 8.69551 6.81697 8.62527 6.72544C8.55504 6.6339 8.45924 6.56526 8.34999 6.52817C8.24074 6.49109 8.12295 6.48723 8.01151 6.51709C7.90006 6.54695 7.79998 6.60919 7.72391 6.69593C7.64784 6.78267 7.5992 6.89002 7.58414 7.00441C7.56908 7.11879 7.58828 7.23507 7.63931 7.33855C7.69034 7.44202 7.7709 7.52804 7.87082 7.58573C8.0048 7.66308 8.16402 7.68405 8.31346 7.644C8.4629 7.60396 8.59031 7.5062 8.66766 7.37221ZM6.63938 8.55196C6.71674 8.41798 6.7377 8.25876 6.69766 8.10932C6.65762 7.95988 6.55985 7.83247 6.42587 7.75512L5.92069 7.46345C5.78671 7.38609 5.62748 7.36513 5.47804 7.40517C5.32861 7.44521 5.20119 7.54298 5.12384 7.67696C5.04649 7.81095 5.02552 7.97017 5.06556 8.11961C5.10561 8.26905 5.20337 8.39646 5.33735 8.47381L5.84254 8.76548C5.97652 8.84283 6.13574 8.86379 6.28518 8.82375C6.43462 8.78371 6.56203 8.68595 6.63938 8.55196ZM4.88263 13.2631C5.08352 13.1467 5.25924 12.9915 5.39956 12.8066C5.53988 12.6216 5.642 12.4106 5.69996 12.1858C5.76236 11.953 5.7743 11.7095 5.73498 11.4718L12.5081 7.56875C12.5968 7.51755 12.6704 7.44392 12.7216 7.35524C12.7728 7.26656 12.7997 7.16597 12.7997 7.06357C12.8009 6.96021 12.7746 6.85839 12.7236 6.76854C12.6725 6.67868 12.5984 6.60401 12.509 6.55218L5.85575 2.71093C5.92731 2.35474 5.88391 1.98502 5.73181 1.65509C5.5797 1.32516 5.32675 1.05205 5.00942 0.875147C4.61446 0.646929 4.146 0.581947 3.70383 0.694044C3.26166 0.806142 2.88074 1.08646 2.64221 1.47528L2.47304 1.76828C1.52122 3.42588 1.02494 5.30581 1.0346 7.21722C1.04426 9.12863 1.55952 11.0035 2.52805 12.6513C2.7637 13.0388 3.14059 13.3197 3.57928 13.4348C4.01798 13.5498 4.48421 13.4901 4.87971 13.2681L4.88263 13.2631ZM11.0517 7.05796L5.28252 10.3888C4.77545 9.35698 4.51811 8.22039 4.53127 7.07079C4.54443 5.9212 4.82773 4.7908 5.3583 3.77087L11.0517 7.05796ZM3.53063 12.0582C2.64223 10.5453 2.18208 8.81926 2.19945 7.06492C2.21682 5.31058 2.71106 3.59401 3.62924 2.09903C3.70659 1.96504 3.834 1.86728 3.98344 1.82723C4.13288 1.78719 4.2921 1.80816 4.42608 1.88551C4.494 1.9242 4.55345 1.97613 4.60091 2.03824C4.64836 2.10035 4.68284 2.17137 4.70232 2.24706C4.739 2.39479 4.7165 2.551 4.6396 2.68236L4.49085 2.94C3.74246 4.23747 3.35203 5.7104 3.35947 7.20822C3.36691 8.70603 3.77196 10.175 4.5332 11.465C4.57091 11.5276 4.59512 11.5975 4.60426 11.67C4.61341 11.7426 4.6073 11.8163 4.58632 11.8863C4.54774 12.0339 4.45289 12.1605 4.3221 12.239C4.19288 12.3189 4.03757 12.3453 3.88921 12.3124C3.74085 12.2796 3.61115 12.1902 3.52771 12.0632L3.53063 12.0582Z" fill="#585858"/>
</g>
<defs>
<clipPath id="clip0">
<rect width="14" height="14" fill="white"/>
</clipPath>
</defs>
</svg>
