<svg width="14" height="14" viewBox="0 0 14 14" fill="none" xmlns="http://www.w3.org/2000/svg">
<g clip-path="url(#clip0)">
<path d="M5 9H7.5H8.5L7 12L5 9Z" fill="#FBE062"/>
<path d="M7.86194 6.40445C7.96186 6.46214 8.07664 6.4889 8.19176 6.48135C8.30689 6.47381 8.41719 6.43229 8.50872 6.36206C8.60025 6.29182 8.6689 6.19603 8.70599 6.08678C8.74307 5.97753 8.74693 5.85973 8.71707 5.74829C8.68721 5.63685 8.62497 5.53677 8.53823 5.4607C8.45149 5.38463 8.34414 5.33599 8.22975 5.32093C8.11537 5.30587 7.99908 5.32507 7.89561 5.37609C7.79213 5.42712 7.70612 5.50769 7.64843 5.6076C7.57107 5.74159 7.55011 5.90081 7.59015 6.05025C7.6302 6.19969 7.72796 6.3271 7.86194 6.40445ZM6.55528 8.66766C6.65519 8.72535 6.76997 8.75211 6.8851 8.74457C7.00022 8.73702 7.11052 8.69551 7.20205 8.62527C7.29359 8.55504 7.36223 8.45924 7.39932 8.34999C7.43641 8.24074 7.44026 8.12295 7.4104 8.01151C7.38054 7.90006 7.3183 7.79998 7.23156 7.72391C7.14482 7.64784 7.03747 7.5992 6.92308 7.58414C6.8087 7.56908 6.69242 7.58828 6.58894 7.63931C6.48547 7.69034 6.39945 7.7709 6.34176 7.87082C6.26441 8.0048 6.24345 8.16402 6.28349 8.31346C6.32353 8.4629 6.42129 8.59031 6.55528 8.66766ZM5.37553 6.63938C5.50951 6.71674 5.66873 6.7377 5.81817 6.69766C5.96761 6.65762 6.09502 6.55985 6.17238 6.42587L6.46404 5.92069C6.5414 5.78671 6.56236 5.62748 6.52232 5.47804C6.48228 5.32861 6.38451 5.20119 6.25053 5.12384C6.11654 5.04648 5.95732 5.02552 5.80788 5.06556C5.65845 5.10561 5.53103 5.20337 5.45368 5.33735L5.16201 5.84254C5.08466 5.97652 5.0637 6.13574 5.10374 6.28518C5.14378 6.43462 5.24154 6.56203 5.37553 6.63938ZM0.6644 4.88263C0.780781 5.08352 0.935971 5.25924 1.12093 5.39956C1.30589 5.53988 1.51692 5.642 1.74173 5.69996C1.97452 5.76236 2.21794 5.7743 2.45572 5.73498L6.35874 12.5081C6.40994 12.5968 6.48358 12.6704 6.57225 12.7216C6.66093 12.7728 6.76152 12.7997 6.86392 12.7997C6.96728 12.8009 7.0691 12.7746 7.15895 12.7236C7.24881 12.6725 7.32348 12.5984 7.37531 12.509L11.2166 5.85575C11.5728 5.92731 11.9425 5.88391 12.2724 5.73181C12.6023 5.5797 12.8754 5.32675 13.0523 5.00942C13.2806 4.61446 13.3455 4.146 13.2334 3.70383C13.1213 3.26166 12.841 2.88074 12.4522 2.64221L12.1592 2.47304C10.5016 1.52122 8.62168 1.02494 6.71027 1.0346C4.79886 1.04426 2.92404 1.55951 1.27615 2.52805C0.888649 2.7637 0.60777 3.14059 0.492709 3.57928C0.377647 4.01797 0.437392 4.4842 0.659349 4.87971L0.6644 4.88263ZM6.86953 11.0517L3.5387 5.28252C4.57051 4.77545 5.7071 4.51811 6.8567 4.53127C8.00629 4.54443 9.13669 4.82773 10.1566 5.3583L6.86953 11.0517ZM1.86933 3.53062C3.3822 2.64223 5.10823 2.18208 6.86257 2.19945C8.61691 2.21682 10.3335 2.71106 11.8285 3.62924C11.9624 3.70659 12.0602 3.834 12.1003 3.98344C12.1403 4.13288 12.1193 4.2921 12.042 4.42608C12.0033 4.494 11.9514 4.55345 11.8892 4.6009C11.8271 4.64836 11.7561 4.68284 11.6804 4.70232C11.5327 4.739 11.3765 4.7165 11.2451 4.6396L10.9875 4.49085C9.69002 3.74246 8.21709 3.35203 6.71928 3.35947C5.22146 3.36691 3.75248 3.77196 2.46251 4.5332C2.39986 4.57091 2.33001 4.59512 2.25746 4.60426C2.1849 4.61341 2.11123 4.6073 2.04118 4.58632C1.89361 4.54773 1.76702 4.45289 1.68854 4.3221C1.6086 4.19288 1.58224 4.03757 1.61506 3.88921C1.64788 3.74085 1.7373 3.61115 1.86428 3.52771L1.86933 3.53062Z" fill="white"/>
</g>
<defs>
<clipPath id="clip0">
<rect width="14" height="14" fill="white" transform="translate(14) rotate(90)"/>
</clipPath>
</defs>
</svg>
